<svg width="30" height="30" viewBox="0 0 30 30" fill="none" xmlns="http://www.w3.org/2000/svg">
<g clip-path="url(#clip0_163_243)">
<path d="M15.0001 11.3006C14.7888 11.3006 14.5823 11.3206 14.3819 11.3573L10.507 4.27097C10.2537 3.80785 9.66045 3.631 9.18196 3.87616C8.70339 4.12119 8.52072 4.69532 8.77398 5.15845L12.6483 12.2438C12.0641 12.8092 11.7225 13.5637 11.6816 14.3528C11.6661 14.65 11.6954 14.9485 11.7562 15.212L8.4349 17.0425C7.96444 17.3018 7.80026 17.8812 8.06823 18.3364C8.24902 18.6437 8.58019 18.8159 8.92104 18.8159C9.08555 18.8159 9.25222 18.7757 9.40529 18.6913L12.7286 16.8598C13.3232 17.3998 14.1221 17.7316 15 17.7316C16.8321 17.7316 18.3227 16.2891 18.3227 14.5161C18.3227 12.7431 16.8321 11.3006 15.0001 11.3006ZM15.0001 15.8341C14.2473 15.8341 13.6381 15.2397 13.6381 14.5161C13.6381 13.7803 14.2587 13.1981 15.0001 13.1981C15.751 13.1981 16.362 13.7894 16.362 14.5161C16.3619 15.2429 15.751 15.8341 15.0001 15.8341Z" fill="black"/>
<path d="M15 0C6.71575 0 0 6.49911 0 14.5161C0 22.5331 6.71575 29.0323 15 29.0323C23.2843 29.0323 30 22.5331 30 14.5161C30 6.49911 23.2843 0 15 0ZM24.2201 23.4388C21.9899 25.5972 19.094 26.8773 15.9804 27.0997L15.9805 25.6339C15.9805 25.1099 15.5416 24.6851 15.0001 24.6851C14.4587 24.6851 14.0197 25.1099 14.0197 25.6339L14.0196 27.0997C10.9061 26.8772 8.01013 25.5972 5.77993 23.4388C3.54961 21.2805 2.22686 18.478 1.99693 15.4649H3.51157C4.05301 15.4649 4.49196 15.0401 4.49196 14.5161C4.49196 13.9922 4.05301 13.5674 3.51157 13.5674H1.99693C2.22686 10.5542 3.54961 7.75174 5.77987 5.59342C8.01013 3.4351 10.9061 2.15497 14.0196 1.93245V3.39823C14.0196 3.9222 14.4586 4.347 15 4.347C15.5414 4.347 15.9804 3.9222 15.9804 3.39823V1.93251C19.0939 2.15497 21.9898 3.4351 24.2201 5.59342C26.4503 7.75174 27.7731 10.5542 28.003 13.5674H26.4884C25.9469 13.5674 25.508 13.9922 25.508 14.5161C25.508 15.0401 25.9469 15.4649 26.4884 15.4649H28.003C27.7732 18.478 26.4504 21.2805 24.2201 23.4388Z" fill="black"/>
</g>
<defs>
<clipPath id="clip0_163_243">
<rect width="30" height="29.0323" fill="white"/>
</clipPath>
</defs>
</svg>
