<svg width="40" height="40" viewBox="0 0 40 40" fill="none" xmlns="http://www.w3.org/2000/svg">
<rect width="40" height="40" rx="5" fill="#FFCC29"/>
<g clip-path="url(#clip0_237_419)">
<rect width="20" height="20" transform="matrix(0 -1 1 0 10 30)" fill="#FFCC29"/>
<path d="M23.1888 11.0515V17.6897C23.1888 18.0534 22.8939 18.3483 22.5302 18.3483C22.1664 18.3483 21.8716 18.0534 21.8716 17.6897V11.0517C21.8716 10.6879 22.1664 10.3931 22.5302 10.3931C22.8939 10.3931 23.1888 10.6877 23.1888 11.0515Z" fill="black"/>
<path d="M24.7854 19.2863C24.7854 20.5297 23.7738 21.5413 22.5304 21.5413C21.2867 21.5413 20.2751 20.5297 20.2751 19.2863C20.2751 18.0427 21.2867 17.0311 22.5304 17.0311C23.7736 17.0311 24.7854 18.0427 24.7854 19.2863ZM21.5921 19.2863C21.5921 19.8035 22.013 20.2241 22.5302 20.2241C23.0472 20.2241 23.468 19.8033 23.468 19.2863C23.468 18.7691 23.0472 18.3483 22.5302 18.3483C22.013 18.3483 21.5921 18.7691 21.5921 19.2863Z" fill="black"/>
<path d="M23.1888 20.883V28.9707C23.1888 29.3345 22.8939 29.6293 22.5302 29.6293C22.1664 29.6293 21.8716 29.3345 21.8716 28.9707V20.8827C21.8716 20.519 22.1664 20.2241 22.5302 20.2241C22.8939 20.2241 23.1888 20.5192 23.1888 20.883Z" fill="black"/>
<path d="M18.106 11.0515V23.7382C18.106 24.1019 17.8112 24.3968 17.4474 24.3968C17.0836 24.3968 16.7888 24.1019 16.7888 23.7382V11.0515C16.7888 10.6877 17.0836 10.3929 17.4474 10.3929C17.8112 10.3929 18.106 10.6877 18.106 11.0515Z" fill="black"/>
<path d="M19.7026 25.3348C19.7026 26.5785 18.691 27.5901 17.4474 27.5901C16.2037 27.5901 15.1921 26.5785 15.1921 25.3348C15.1921 24.0912 16.2037 23.0796 17.4474 23.0796C18.691 23.0796 19.7026 24.0914 19.7026 25.3348ZM16.5093 25.3348C16.5093 25.852 16.9302 26.2729 17.4474 26.2729C17.9646 26.2729 18.3854 25.852 18.3854 25.3348C18.3854 24.8176 17.9646 24.3968 17.4474 24.3968C16.9302 24.3968 16.5093 24.8178 16.5093 25.3348Z" fill="black"/>
<path d="M18.106 26.9315V28.9707C18.106 29.3345 17.8112 29.6293 17.4474 29.6293C17.0836 29.6293 16.7888 29.3345 16.7888 28.9707V26.9315C16.7888 26.5677 17.0836 26.2729 17.4474 26.2729C17.8112 26.2729 18.106 26.5679 18.106 26.9315Z" fill="black"/>
<path d="M13.0237 17.237V28.9707C13.0237 29.3345 12.7289 29.6293 12.3651 29.6293C12.0014 29.6293 11.7065 29.3345 11.7065 28.9707V17.237C11.7065 16.8732 12.0014 16.5784 12.3651 16.5784C12.7289 16.5784 13.0237 16.8732 13.0237 17.237Z" fill="black"/>
<path d="M14.6204 15.6406C14.6204 16.884 13.6088 17.8956 12.3651 17.8956C11.1215 17.8956 10.1099 16.884 10.1099 15.6406C10.1099 14.3969 11.1215 13.3853 12.3651 13.3853C13.6088 13.3853 14.6204 14.3969 14.6204 15.6406ZM11.4271 15.6406C11.4271 16.1576 11.8479 16.5784 12.3651 16.5784C12.8823 16.5784 13.3032 16.1576 13.3032 15.6406C13.3032 15.1233 12.8823 14.7025 12.3651 14.7025C11.8479 14.7025 11.4271 15.1231 11.4271 15.6406Z" fill="black"/>
<path d="M13.0237 11.0515V14.0437C13.0237 14.4074 12.7289 14.7023 12.3651 14.7023C12.0014 14.7023 11.7065 14.4074 11.7065 14.0437V11.0515C11.7065 10.6877 12.0014 10.3929 12.3651 10.3929C12.7289 10.3929 13.0237 10.6877 13.0237 11.0515Z" fill="black"/>
<path d="M28.2713 11.0515V23.7382C28.2713 24.1019 27.9765 24.3968 27.6127 24.3968C27.2489 24.3968 26.9541 24.1019 26.9541 23.7382V11.0515C26.9541 10.6877 27.2489 10.3929 27.6127 10.3929C27.9765 10.3929 28.2713 10.6877 28.2713 11.0515Z" fill="black"/>
<path d="M29.8677 25.3348C29.8677 26.5785 28.8561 27.5901 27.6127 27.5901C26.369 27.5901 25.3574 26.5785 25.3574 25.3348C25.3574 24.0912 26.369 23.0796 27.6127 23.0796C28.8561 23.0798 29.8677 24.0914 29.8677 25.3348ZM26.6744 25.3348C26.6744 25.852 27.0952 26.2729 27.6124 26.2729C28.1294 26.2729 28.5503 25.852 28.5503 25.3348C28.5503 24.8176 28.1294 24.3968 27.6124 24.3968C27.0952 24.397 26.6744 24.8178 26.6744 25.3348Z" fill="black"/>
<path d="M28.2713 26.9315V28.9707C28.2713 29.3345 27.9765 29.6293 27.6127 29.6293C27.2489 29.6293 26.9541 29.3345 26.9541 28.9707V26.9315C26.9541 26.5677 27.2489 26.2729 27.6127 26.2729C27.9765 26.2729 28.2713 26.5679 28.2713 26.9315Z" fill="black"/>
</g>
<defs>
<clipPath id="clip0_237_419">
<rect width="20" height="20" fill="white" transform="matrix(0 -1 1 0 10 30)"/>
</clipPath>
</defs>
</svg>
