<svg width="30" height="30" viewBox="0 0 30 30" fill="none" xmlns="http://www.w3.org/2000/svg">
<path d="M27.1746 0H2.82542C2.45723 0 2.15875 0.298476 2.15875 0.666667V29.3333C2.15875 29.7015 2.45723 30 2.82542 30H27.1746C27.5428 30 27.8412 29.7015 27.8412 29.3333V0.666667C27.8412 0.298476 27.5428 0 27.1746 0ZM26.5079 1.33333V6.29781H3.49209V1.33333H26.5079ZM3.49209 28.6667V7.63114H26.5079V28.6667H3.49209Z" fill="black"/>
<path d="M6.67398 4.60505C7.11003 4.60505 7.46351 4.25157 7.46351 3.81552C7.46351 3.37948 7.11003 3.026 6.67398 3.026C6.23794 3.026 5.88446 3.37948 5.88446 3.81552C5.88446 4.25157 6.23794 4.60505 6.67398 4.60505Z" fill="black"/>
<path d="M9.70505 4.60505C10.1411 4.60505 10.4946 4.25157 10.4946 3.81552C10.4946 3.37948 10.1411 3.026 9.70505 3.026C9.26901 3.026 8.91553 3.37948 8.91553 3.81552C8.91553 4.25157 9.26901 4.60505 9.70505 4.60505Z" fill="black"/>
<path d="M20.2948 4.60505C20.7309 4.60505 21.0844 4.25157 21.0844 3.81552C21.0844 3.37948 20.7309 3.026 20.2948 3.026C19.8588 3.026 19.5053 3.37948 19.5053 3.81552C19.5053 4.25157 19.8588 4.60505 20.2948 4.60505Z" fill="black"/>
<path d="M23.3259 4.60505C23.7619 4.60505 24.1154 4.25157 24.1154 3.81552C24.1154 3.37948 23.7619 3.026 23.3259 3.026C22.8899 3.026 22.5364 3.37948 22.5364 3.81552C22.5364 4.25157 22.8899 4.60505 23.3259 4.60505Z" fill="black"/>
<path d="M15 5.80152C16.0952 5.80152 16.9862 4.91057 16.9862 3.81543C16.9862 2.72038 16.0952 1.82952 15 1.82952C13.9049 1.82952 13.0139 2.72038 13.0139 3.81543C13.0139 4.91057 13.9049 5.80152 15 5.80152ZM15 3.16285C15.3599 3.16285 15.6529 3.45552 15.6529 3.81543C15.6529 4.17533 15.36 4.46819 15 4.46819C14.64 4.46819 14.3472 4.17533 14.3472 3.81543C14.3472 3.45552 14.6401 3.16285 15 3.16285Z" fill="black"/>
<path d="M24.1155 12.8619H5.88444C5.51625 12.8619 5.21777 13.1604 5.21777 13.5286V26.2743C5.21777 26.6425 5.51625 26.941 5.88444 26.941H24.1155C24.4837 26.941 24.7822 26.6425 24.7822 26.2743V13.5286C24.7822 13.1604 24.4837 12.8619 24.1155 12.8619ZM23.4488 25.6076H6.55111V14.1952H23.4488V25.6076Z" fill="black"/>
<path d="M24.1155 9.72781H5.88444C5.51625 9.72781 5.21777 10.0263 5.21777 10.3945C5.21777 10.7627 5.51625 11.0611 5.88444 11.0611H24.1155C24.4837 11.0611 24.7822 10.7627 24.7822 10.3945C24.7822 10.0262 24.4837 9.72781 24.1155 9.72781Z" fill="black"/>
<path d="M16.9255 21.8978C16.6742 22.1404 16.2946 22.507 16.2946 23.2027C16.2946 23.5709 16.593 23.8693 16.9612 23.8693C17.3294 23.8693 17.6279 23.5709 17.6279 23.2027C17.6279 23.0863 17.6508 23.0508 17.8517 22.8569C18.103 22.6143 18.4826 22.2477 18.4826 21.552C18.4826 20.8564 18.103 20.4898 17.8518 20.2471C17.6509 20.0532 17.6279 20.0176 17.6279 19.9011C17.6279 19.7849 17.6508 19.7494 17.8516 19.5556C18.1029 19.313 18.4826 18.9463 18.4826 18.2507C18.4826 17.555 18.1029 17.1884 17.8516 16.9458C17.6509 16.752 17.6279 16.7166 17.6279 16.6003C17.6279 16.2321 17.3294 15.9336 16.9612 15.9336C16.593 15.9336 16.2946 16.2321 16.2946 16.6003C16.2946 17.2959 16.6743 17.6625 16.9255 17.9051C17.1263 18.0989 17.1493 18.1344 17.1493 18.2507C17.1493 18.3671 17.1264 18.4026 16.9255 18.5964C16.6742 18.8391 16.2946 19.2055 16.2946 19.9011C16.2946 20.597 16.6743 20.9635 16.9255 21.2062C17.1263 21.4001 17.1493 21.4356 17.1493 21.552C17.1493 21.6684 17.1263 21.7039 16.9255 21.8978Z" fill="black"/>
<path d="M12.1484 21.8977C11.8971 22.1404 11.5174 22.507 11.5174 23.2027C11.5174 23.5709 11.8159 23.8693 12.1841 23.8693C12.5523 23.8693 12.8507 23.5709 12.8507 23.2027C12.8507 23.0864 12.8737 23.0508 13.0746 22.857C13.326 22.6143 13.7057 22.2477 13.7057 21.552C13.7057 20.8563 13.326 20.4897 13.0746 20.2471C12.8738 20.0531 12.8507 20.0176 12.8507 19.9011C12.8507 19.785 12.8737 19.7494 13.0745 19.5556C13.3259 19.3131 13.7057 18.9465 13.7057 18.2507C13.7057 17.555 13.3259 17.1884 13.0745 16.9458C12.8738 16.752 12.8507 16.7165 12.8507 16.6003C12.8507 16.2321 12.5523 15.9336 12.1841 15.9336C11.8159 15.9336 11.5174 16.2321 11.5174 16.6003C11.5174 17.2959 11.8972 17.6625 12.1485 17.9051C12.3493 18.0989 12.3723 18.1344 12.3723 18.2507C12.3723 18.367 12.3494 18.4026 12.1484 18.5964C11.8971 18.839 11.5174 19.2055 11.5174 19.9011C11.5174 20.597 11.8971 20.9636 12.1485 21.2063C12.3493 21.4001 12.3723 21.4357 12.3723 21.552C12.3723 21.6683 12.3493 21.7039 12.1484 21.8977Z" fill="black"/>
</svg>
