<svg width="30" height="30" viewBox="0 0 30 30" fill="none" xmlns="http://www.w3.org/2000/svg">
<path d="M28.3858 10.1976C28.3922 8.38224 27.6835 6.67868 26.4034 5.39856C25.1232 4.11833 23.4198 3.40995 21.6114 3.40995C19.8034 3.40995 18.0937 4.11796 16.8131 5.39856L15.4065 6.80527C15.4061 6.80564 15.4057 6.80602 15.4053 6.80639C15.1963 7.01076 14.8072 7.0065 14.6087 6.808L13.193 5.39238C11.9067 4.10604 10.2034 3.39759 8.38863 3.39759C6.58622 3.39759 4.88343 4.10601 3.60369 5.37909L3.60276 5.38001C2.32164 6.66114 1.62034 8.36485 1.62033 10.1721L1.62034 10.1739C1.62701 11.987 2.33467 13.6898 3.61513 14.9703L14.6619 26.0171L15.0156 26.3707L15.3691 26.017L26.3901 14.9897C26.3903 14.9896 26.3904 14.9895 26.3906 14.9893C27.6773 13.709 28.3856 12.0057 28.3858 10.1976ZM28.3858 10.1976C28.3858 10.1979 28.3858 10.1983 28.3858 10.1986L27.886 10.1968H28.3858C28.3858 10.1971 28.3858 10.1973 28.3858 10.1976ZM14.6557 5.26495L15.0093 5.6185L15.3628 5.26495L16.0181 4.60968C17.5133 3.11446 19.5004 2.28962 21.6114 2.28962C23.7166 2.28962 25.6966 3.10851 27.1847 4.60831L27.1868 4.61037C28.6806 6.09834 29.5 8.08471 29.5 10.1968C29.5 12.3074 28.6754 14.2884 27.1799 15.7839L15.4037 27.5601C15.297 27.6668 15.1537 27.7227 15.0093 27.7227C14.8648 27.7227 14.7236 27.6688 14.621 27.5663L14.2996 27.8877L14.621 27.5663L14.5963 27.5416L2.82007 15.7653C1.32456 14.2698 0.5 12.2888 0.5 10.1782C0.5 8.06673 1.31905 6.08598 2.81389 4.59114C4.30886 3.09616 6.28968 2.27725 8.39481 2.27725C10.5058 2.27725 12.4929 3.10209 13.9881 4.59732L14.6557 5.26495Z" fill="black"/>
<path d="M28.3858 10.1976C28.3922 8.38224 27.6835 6.67868 26.4034 5.39856C25.1232 4.11833 23.4198 3.40995 21.6114 3.40995C19.8034 3.40995 18.0937 4.11796 16.8131 5.39856L15.4065 6.80527C15.4061 6.80564 15.4057 6.80602 15.4053 6.80639C15.1963 7.01076 14.8072 7.0065 14.6087 6.808L13.193 5.39238C11.9067 4.10604 10.2034 3.39759 8.38863 3.39759C6.58622 3.39759 4.88343 4.10601 3.60369 5.37909L3.60276 5.38001C2.32164 6.66114 1.62034 8.36485 1.62033 10.1721L1.62034 10.1739C1.62701 11.987 2.33467 13.6898 3.61513 14.9703L14.6619 26.0171L15.0156 26.3707L15.3691 26.017L26.3901 14.9897C26.3903 14.9896 26.3904 14.9895 26.3906 14.9893C27.6773 13.709 28.3856 12.0057 28.3858 10.1976ZM28.3858 10.1976C28.3858 10.1979 28.3858 10.1983 28.3858 10.1986L27.886 10.1968H28.3858C28.3858 10.1971 28.3858 10.1973 28.3858 10.1976ZM14.6557 5.26495L15.0093 5.6185L15.3628 5.26495L16.0181 4.60968C17.5133 3.11446 19.5004 2.28962 21.6114 2.28962C23.7166 2.28962 25.6966 3.10851 27.1847 4.60831L27.1868 4.61037C28.6806 6.09834 29.5 8.08471 29.5 10.1968C29.5 12.3074 28.6754 14.2884 27.1799 15.7839L15.4037 27.5601C15.297 27.6668 15.1537 27.7227 15.0093 27.7227C14.8648 27.7227 14.7236 27.6688 14.621 27.5663L14.2996 27.8877L14.621 27.5663L14.5963 27.5416L2.82007 15.7653C1.32456 14.2698 0.5 12.2888 0.5 10.1782C0.5 8.06673 1.31905 6.08598 2.81389 4.59114C4.30886 3.09616 6.28968 2.27725 8.39481 2.27725C10.5058 2.27725 12.4929 3.10209 13.9881 4.59732L14.6557 5.26495Z" stroke="black"/>
<path d="M28.3858 10.1976C28.3922 8.38224 27.6835 6.67868 26.4034 5.39856C25.1232 4.11833 23.4198 3.40995 21.6114 3.40995C19.8034 3.40995 18.0937 4.11796 16.8131 5.39856L15.4065 6.80527C15.4061 6.80564 15.4057 6.80602 15.4053 6.80639C15.1963 7.01076 14.8072 7.0065 14.6087 6.808L13.193 5.39238C11.9067 4.10604 10.2034 3.39759 8.38863 3.39759C6.58622 3.39759 4.88343 4.10601 3.60369 5.37909L3.60276 5.38001C2.32164 6.66114 1.62034 8.36485 1.62033 10.1721L1.62034 10.1739C1.62701 11.987 2.33467 13.6898 3.61513 14.9703L14.6619 26.0171L15.0156 26.3707L15.3691 26.017L26.3901 14.9897C26.3903 14.9896 26.3904 14.9895 26.3906 14.9893C27.6773 13.709 28.3856 12.0057 28.3858 10.1976ZM28.3858 10.1976C28.3858 10.1979 28.3858 10.1983 28.3858 10.1986L27.886 10.1968H28.3858C28.3858 10.1971 28.3858 10.1973 28.3858 10.1976ZM14.6557 5.26495L15.0093 5.6185L15.3628 5.26495L16.0181 4.60968C17.5133 3.11446 19.5004 2.28962 21.6114 2.28962C23.7166 2.28962 25.6966 3.10851 27.1847 4.60831L27.1868 4.61037C28.6806 6.09834 29.5 8.08471 29.5 10.1968C29.5 12.3074 28.6754 14.2884 27.1799 15.7839L15.4037 27.5601C15.297 27.6668 15.1537 27.7227 15.0093 27.7227C14.8648 27.7227 14.7236 27.6688 14.621 27.5663L14.2996 27.8877L14.621 27.5663L14.5963 27.5416L2.82007 15.7653C1.32456 14.2698 0.5 12.2888 0.5 10.1782C0.5 8.06673 1.31905 6.08598 2.81389 4.59114C4.30886 3.09616 6.28968 2.27725 8.39481 2.27725C10.5058 2.27725 12.4929 3.10209 13.9881 4.59732L14.6557 5.26495Z" stroke="black" stroke-opacity="0.2"/>
</svg>
