<svg width="20" height="20" viewBox="0 0 20 20" fill="none" xmlns="http://www.w3.org/2000/svg">
<path d="M15.3383 4.991H4.66169C4.10865 4.991 3.57674 5.22448 3.20238 5.63157C2.82802 6.03863 2.63987 6.5882 2.68608 7.1393L3.61107 18.1662C3.65273 18.6629 3.87775 19.1223 4.24468 19.4598C4.61157 19.7972 5.0882 19.983 5.58664 19.983H14.4133C14.9118 19.983 15.3883 19.7972 15.7553 19.4598C16.1222 19.1223 16.3472 18.6629 16.3889 18.1662L17.3138 7.13927C17.36 6.5882 17.1719 6.03863 16.7975 5.63157C16.4232 5.22448 15.8913 4.991 15.3383 4.991ZM15.8643 7.01767L14.9393 18.0446C14.9164 18.3181 14.6877 18.5284 14.4133 18.5284H5.58667C5.31221 18.5284 5.08355 18.3181 5.06063 18.0446L4.13565 7.01767C4.10981 6.7098 4.35272 6.44566 4.66169 6.44566H15.3383C15.6472 6.44566 15.8901 6.7098 15.8643 7.01767Z" fill="#F21616"/>
<path d="M14.4132 20H5.58655C5.08377 20 4.60313 19.8126 4.23308 19.4723C3.863 19.132 3.63604 18.6686 3.59404 18.1676L2.66905 7.14074C2.62243 6.58489 2.81221 6.03063 3.18976 5.62007C3.56731 5.20948 4.10378 4.974 4.66157 4.974H15.3381C15.896 4.974 16.4324 5.20948 16.8099 5.62007C17.1875 6.0306 17.3773 6.58485 17.3306 7.14067L16.4057 18.1676C16.3637 18.6686 16.1367 19.1319 15.7667 19.4722C15.3966 19.8126 14.9159 20 14.4132 20ZM4.6616 5.00799C4.11329 5.00799 3.58592 5.23946 3.21479 5.64309C2.84365 6.04666 2.65707 6.59151 2.70291 7.13792L3.62789 18.1648C3.66918 18.6573 3.8923 19.1127 4.25607 19.4473C4.6198 19.7819 5.09233 19.9661 5.58655 19.9661H14.4132C14.9074 19.9661 15.3799 19.7818 15.7437 19.4473C16.1075 19.1127 16.3306 18.6573 16.3719 18.1648L17.2969 7.13789C17.3427 6.59151 17.1561 6.04666 16.785 5.64313C16.4139 5.23953 15.8866 5.00802 15.3382 5.00802H4.6616V5.00799ZM14.4132 18.5453H5.58659C5.3056 18.5453 5.0671 18.326 5.04364 18.046L4.11865 7.01911C4.10595 6.86764 4.15767 6.7166 4.26055 6.60475C4.36344 6.49287 4.50962 6.42869 4.6616 6.42869H15.3382C15.4902 6.42869 15.6363 6.49283 15.7392 6.60472C15.8421 6.71657 15.8939 6.86764 15.8812 7.01911L14.9562 18.046C14.9327 18.326 14.6942 18.5453 14.4132 18.5453ZM4.6616 6.46265C4.51909 6.46265 4.38201 6.52282 4.28554 6.62771C4.18908 6.73259 4.14059 6.87422 4.15251 7.01623L5.07749 18.0431C5.09949 18.3057 5.32313 18.5114 5.58662 18.5114H14.4132C14.6767 18.5114 14.9004 18.3057 14.9224 18.0431L15.8473 7.01623C15.8592 6.87419 15.8107 6.73256 15.7142 6.62767C15.6178 6.52278 15.4807 6.46265 15.3382 6.46265H4.6616Z" fill="#F21616"/>
<path d="M3.03202 4.20488H16.9681C17.3698 4.20488 17.6954 3.87925 17.6954 3.47756C17.6954 3.07586 17.3698 2.75023 16.9681 2.75023H14.3264V2.71742V1.9995C14.3264 0.906333 13.437 0.0169678 12.3439 0.0169678H7.6563C6.56313 0.0169678 5.67376 0.906333 5.67376 1.9995V2.71742V2.75023H3.03202C2.63032 2.75023 2.30469 3.07586 2.30469 3.47756C2.30469 3.87925 2.63032 4.20488 3.03202 4.20488ZM7.12839 1.9995C7.12839 1.70796 7.36472 1.47163 7.65626 1.47163H12.3439C12.6353 1.47163 12.8717 1.70796 12.8717 1.9995V2.71742H7.12839V1.9995Z" fill="#F21616"/>
<path d="M16.968 4.22187H3.0319C2.62148 4.22187 2.2876 3.88799 2.2876 3.47757C2.2876 3.06718 2.62148 2.73326 3.0319 2.73326H5.65664V1.99951C5.65664 0.897006 6.55361 0 7.65618 0H12.3438C13.4463 0 14.3433 0.897006 14.3433 1.99951V2.73326H16.968C17.3784 2.73326 17.7123 3.06714 17.7123 3.47757C17.7123 3.88799 17.3784 4.22187 16.968 4.22187ZM3.0319 2.76721C2.64023 2.76721 2.32155 3.08589 2.32155 3.47757C2.32155 3.86928 2.64023 4.18792 3.0319 4.18792H16.968C17.3596 4.18792 17.6783 3.86924 17.6783 3.47757C17.6783 3.08589 17.3596 2.76721 16.968 2.76721H14.3093V1.99951C14.3093 0.915716 13.4276 0.0339556 12.3438 0.0339556H7.65618C6.57239 0.0339556 5.69063 0.915716 5.69063 1.99951V2.76721H3.0319ZM12.8886 2.73438H7.1113V1.99951C7.1113 1.69907 7.35571 1.45466 7.65615 1.45466H12.3438C12.6442 1.45466 12.8886 1.69907 12.8886 1.99951V2.73438V2.73438ZM7.14525 2.70042H12.8546V1.99951C12.8546 1.71782 12.6255 1.48861 12.3438 1.48861H7.65618C7.37445 1.48861 7.14529 1.71782 7.14529 1.99951V2.70042H7.14525Z" fill="#F21616"/>
<path d="M7.43184 9.24384C7.40536 8.843 7.05867 8.53964 6.65816 8.56606C6.25732 8.59254 5.95385 8.93896 5.98037 9.33977L6.40271 15.7302C6.42811 16.1146 6.74791 16.4095 7.12773 16.4095C7.14386 16.4095 7.16009 16.409 7.17643 16.4079C7.57724 16.3815 7.8807 16.0351 7.85421 15.6342L7.43184 9.24384Z" fill="#F21616"/>
<path d="M7.12763 16.4266C6.73735 16.4266 6.41144 16.1212 6.38567 15.7313L5.96333 9.34093C5.95022 9.14252 6.01514 8.95095 6.14615 8.80137C6.27715 8.6518 6.45857 8.56225 6.65694 8.54911C7.06913 8.52229 7.42182 8.83645 7.44868 9.24273L7.87102 15.6331C7.89809 16.0426 7.58695 16.3978 7.17741 16.4249C7.16074 16.426 7.14414 16.4266 7.12763 16.4266ZM6.70662 8.58144C6.6909 8.58144 6.67511 8.58198 6.65922 8.583C6.46988 8.59553 6.29677 8.681 6.17171 8.82371C6.04669 8.96646 5.98472 9.14931 5.99725 9.33865L6.41959 15.729C6.44519 16.1169 6.78261 16.4165 7.17524 16.391C7.56607 16.3652 7.86301 16.0262 7.8372 15.6353L7.41486 9.24497C7.39028 8.87291 7.07918 8.58144 6.70662 8.58144Z" fill="#F21616"/>
<path d="M10 8.56448C9.59834 8.56448 9.27271 8.89012 9.27271 9.29181V15.6822C9.27271 16.0839 9.59834 16.4095 10 16.4095C10.4018 16.4095 10.7274 16.0839 10.7274 15.6822V9.29181C10.7274 8.89012 10.4018 8.56448 10 8.56448Z" fill="#F21616"/>
<path d="M9.99992 16.4265C9.5895 16.4265 9.25562 16.0926 9.25562 15.6822V9.29182C9.25562 8.8814 9.5895 8.54752 9.99992 8.54752C10.4103 8.54752 10.7442 8.8814 10.7442 9.29182V15.6822C10.7443 16.0926 10.4104 16.4265 9.99992 16.4265ZM9.99992 8.58147C9.60824 8.58147 9.28957 8.90015 9.28957 9.29182V15.6822C9.28957 16.0739 9.60824 16.3926 9.99992 16.3926C10.3916 16.3926 10.7103 16.0739 10.7103 15.6822V9.29182C10.7103 8.90011 10.3916 8.58147 9.99992 8.58147Z" fill="#F21616"/>
<path d="M13.3419 8.56606C12.9413 8.53964 12.5947 8.843 12.5682 9.24384L12.1459 15.6343C12.1194 16.0351 12.4228 16.3815 12.8237 16.408C12.84 16.409 12.8562 16.4096 12.8724 16.4096C13.2522 16.4096 13.572 16.1146 13.5975 15.7302L14.0197 9.3398C14.0462 8.93896 13.7428 8.59254 13.3419 8.56606Z" fill="#F21616"/>
<path d="M12.8723 16.4265C12.8558 16.4265 12.8392 16.426 12.8225 16.4249C12.4129 16.3978 12.1018 16.0426 12.1288 15.6331L12.5512 9.24274C12.578 8.83646 12.931 8.52214 13.3429 8.54913C13.5413 8.56224 13.7227 8.65181 13.8537 8.80136C13.9847 8.9509 14.0497 9.14251 14.0365 9.34091L13.6143 15.7313C13.5884 16.1211 13.2625 16.4265 12.8723 16.4265ZM13.2932 8.58142C12.9207 8.58142 12.6096 8.87287 12.5851 9.24495L12.1627 15.6354C12.1369 16.0262 12.4339 16.3652 12.8247 16.391C13.2187 16.4165 13.5547 16.1169 13.5804 15.7291L14.0026 9.33867C14.0152 9.14933 13.9532 8.96648 13.8282 8.82373C13.7031 8.68098 13.53 8.59552 13.3407 8.58302C13.3248 8.58197 13.309 8.58142 13.2932 8.58142Z" fill="#F21616"/>
</svg>
