<svg width="59" height="61" viewBox="0 0 59 61" fill="none" xmlns="http://www.w3.org/2000/svg">
<rect width="59" height="61" rx="10" fill="#FFCC29"/>
<path d="M47.0625 41.25C47.625 41.875 47.625 42.875 47.0625 43.4375L44.4375 46.1875C43.875 46.8125 42.875 46.8125 42.3125 46.1875L43.125 42.3125L47.0625 41.25Z" fill="#8CC63E"/>
<path d="M45.375 43.6875C48.75 40.875 51.25 36.5 44.3125 29.5625C39.0625 24.3125 43.6875 20.9375 43.6875 20.9375C43.6875 20.9375 28.0625 20.9375 45.375 43.6875Z" fill="#64892F"/>
<path d="M17.0625 15.5625C13.875 18.625 17.75 27.8125 30.6875 40.4375C37.75 47.3125 41.1875 46.1875 44.3125 43.0625C47.4375 39.9375 48.5625 36.4375 41.75 29.3125C29.25 16.25 20.125 12.375 17.0625 15.5625Z" fill="#C9AC1C"/>
<path d="M18.5 15C17.375 14.125 15.1875 16.125 16.875 17.5C17.875 18.375 20.1875 16.3125 18.5 15Z" fill="#FFE62E"/>
<path d="M20.625 17.0625C19.4375 16.125 17.25 18.125 19 19.625C20.0625 20.5 22.375 18.5 20.625 17.0625Z" fill="#FFE62E"/>
<path d="M22.75 19.125C21.6875 18.3125 19.5 20.3125 21.125 21.625C22.0625 22.4375 24.3125 20.375 22.75 19.125Z" fill="#FFE62E"/>
<path d="M24.8125 21.1875C23.75 20.375 21.5625 22.375 23.1875 23.6875C24.125 24.5 26.4375 22.4375 24.8125 21.1875Z" fill="#FFE62E"/>
<path d="M26.9375 23.25C25.875 22.4375 23.6875 24.4375 25.3125 25.75C26.25 26.5625 28.5625 24.5 26.9375 23.25Z" fill="#FFE62E"/>
<path d="M29.0625 25.3125C28 24.5 25.8125 26.5 27.4375 27.8125C28.375 28.625 30.6875 26.5625 29.0625 25.3125Z" fill="#FFE62E"/>
<path d="M31.125 27.5625C30.0625 26.75 27.875 28.75 29.5 30.0625C30.4375 30.875 32.6875 28.8125 31.125 27.5625Z" fill="#FFE62E"/>
<path d="M33.1875 29.5625C32.125 28.75 29.9375 30.75 31.5625 32.0625C32.5 32.875 34.75 30.8125 33.1875 29.5625Z" fill="#FFE62E"/>
<path d="M35.125 31.5C34.0625 30.6875 31.875 32.6875 33.5 34C34.4375 34.8125 36.6875 32.75 35.125 31.5Z" fill="#FFE62E"/>
<path d="M37.1875 33.5625C36.125 32.75 33.9375 34.75 35.5625 36.0625C36.5 36.875 38.8125 34.8125 37.1875 33.5625Z" fill="#FFE62E"/>
<path d="M39.1875 35.75C38.125 34.9375 35.9375 36.9375 37.5625 38.25C38.5 39.0625 40.75 36.9375 39.1875 35.75Z" fill="#FFE62E"/>
<path d="M41.4375 37.75C40.375 36.9375 38.1875 38.9375 39.8125 40.25C40.75 41.0625 43 39 41.4375 37.75Z" fill="#FFE62E"/>
<path d="M43.4375 39.875C42.375 39.0625 40.1875 41.0625 41.8125 42.375C42.75 43.1875 45.0625 41.125 43.4375 39.875Z" fill="#FFE62E"/>
<path d="M45.1875 41.625C44.5 41.1875 42.375 43.25 43.375 43.9375C43.9375 44.375 46.1875 42.25 45.1875 41.625Z" fill="#FFE62E"/>
<path d="M47.1875 38.9375C47.5 39.5 46.6875 40.9375 46.125 41.1875C44.625 42.0625 46.5625 37.8125 47.1875 38.9375Z" fill="#FFE62E"/>
<path d="M30.375 21.9375C29.3125 21.125 27.125 23.125 28.75 24.4375C29.6875 25.25 32 23.1875 30.375 21.9375Z" fill="#FFE62E"/>
<path d="M33.6875 20.875C32.625 20.0625 30.6875 21.8125 32.25 23.125C33.25 24 35.3125 22.125 33.6875 20.875Z" fill="#FFE62E"/>
<path d="M35.9375 23.0625C34.875 22.25 32.9375 24 34.5 25.3125C35.4375 26.125 37.5 24.3125 35.9375 23.0625Z" fill="#FFE62E"/>
<path d="M38.375 25.0625C37.1875 24.125 35 26.125 36.75 27.625C37.875 28.5625 40.1875 26.5 38.375 25.0625Z" fill="#FFE62E"/>
<path d="M40.8125 27.5C39.625 26.5625 37.4375 28.5625 39.1875 30.0625C40.25 31 42.5625 28.9375 40.8125 27.5Z" fill="#FFE62E"/>
<path d="M43.0625 30C41.875 29.0625 39.6875 31.0625 41.4375 32.5625C42.5625 33.4375 44.875 31.375 43.0625 30Z" fill="#FFE62E"/>
<path d="M45.3125 32.8125C44.4375 31.5625 42.5 32.5625 43.75 34.5C44.5 35.625 46.625 34.6875 45.3125 32.8125Z" fill="#FFE62E"/>
<path d="M32.5625 24.125C31.5 23.3125 29.3125 25.3125 30.9375 26.625C31.875 27.4375 34.1875 25.375 32.5625 24.125Z" fill="#FFE62E"/>
<path d="M34.75 26.375C33.6875 25.5625 31.5 27.5625 33.125 28.875C34.0625 29.625 36.375 27.5625 34.75 26.375Z" fill="#FFE62E"/>
<path d="M36.9375 28.5625C35.875 27.75 33.6875 29.75 35.3125 31.0625C36.25 31.875 38.5625 29.8125 36.9375 28.5625Z" fill="#FFE62E"/>
<path d="M39.125 30.75C38.0625 29.9375 35.875 31.9375 37.5 33.25C38.4375 34.0625 40.75 32 39.125 30.75Z" fill="#FFE62E"/>
<path d="M41.375 33C40.3125 32.1875 38.125 34.1875 39.75 35.5C40.6875 36.3125 43 34.25 41.375 33Z" fill="#FFE62E"/>
<path d="M43.5 35.125C42.4375 34.3125 40.25 36.3125 41.875 37.625C42.8125 38.4375 45.125 36.375 43.5 35.125Z" fill="#FFE62E"/>
<path d="M45.6875 37.375C44.625 36.5625 42.4375 38.5625 44.0625 39.875C45.0625 40.6875 47.3125 38.625 45.6875 37.375Z" fill="#FFE62E"/>
<path d="M28.3125 19.875C27.25 19.0625 25.0625 21.0625 26.6875 22.375C27.625 23.1875 29.9375 21.125 28.3125 19.875Z" fill="#FFE62E"/>
<path d="M31.875 20.6875C32.5625 19.625 30.5625 17.625 29.375 19.25C28.625 20.1875 30.75 22.3125 31.875 20.6875Z" fill="#FFE62E"/>
<path d="M26.125 17.875C25.0625 17.0625 22.875 19.0625 24.5 20.375C25.4375 21.1875 27.6875 19.125 26.125 17.875Z" fill="#FFE62E"/>
<path d="M23.9375 16.25C23 15.5 21 17.3125 22.4375 18.5C23.3125 19.25 25.375 17.375 23.9375 16.25Z" fill="#FFE62E"/>
<path d="M21.625 15.3125C20.875 14.6875 19.625 15.75 20.8125 16.8125C21.5 17.4375 22.8125 16.3125 21.625 15.3125Z" fill="#FFE62E"/>
<path d="M19 14.4375C18.625 14.9375 19.625 16.0625 20.25 15.25C20.625 14.8125 19.5625 13.6875 19 14.4375Z" fill="#FFE62E"/>
<path d="M20.3125 14.3125C20.1875 14.5625 21.25 15.4375 21.5625 14.625C21.6875 14.125 20.5 13.9375 20.3125 14.3125Z" fill="#FFE62E"/>
<path d="M21.8125 14.75C21.6875 15 22.9375 16.0625 23.3125 15.125C23.5 14.5625 22 14.375 21.8125 14.75Z" fill="#FFE62E"/>
<path d="M23.5625 15.25C23.375 15.5 24.375 16.8125 24.875 15.9375C25.25 15.4375 23.8125 14.9375 23.5625 15.25Z" fill="#FFE62E"/>
<path d="M46.625 37.5625C47.1875 37.5 47.5625 34.5625 45.75 34.9375C44.6875 35.1875 45.8125 37.625 46.625 37.5625Z" fill="#FFE62E"/>
<path d="M27.3125 17.125C26.8125 17.5625 27.8125 20.125 29.375 18.625C30.3125 17.6875 28.0625 16.5625 27.3125 17.125Z" fill="#FFE62E"/>
<path d="M25.1875 16C24.8125 16.3125 25.625 18.4375 26.875 17.1875C27.625 16.4375 25.8125 15.5 25.1875 16Z" fill="#FFE62E"/>
<path d="M23.4375 28.9375C22.625 27.875 24.625 25.6875 25.9375 27.25C26.75 28.25 24.6875 30.5625 23.4375 28.9375Z" fill="#FFE62E"/>
<path d="M22.375 32.25C21.5625 31.1875 23.3125 29.25 24.625 30.8125C25.4375 31.8125 23.625 33.875 22.375 32.25Z" fill="#FFE62E"/>
<path d="M25.625 31.125C24.8125 30.0625 26.8125 27.875 28.125 29.4375C28.9375 30.4375 26.875 32.75 25.625 31.125Z" fill="#FFE62E"/>
<path d="M27.8125 33.3125C27 32.25 29 30.0625 30.3125 31.625C31.125 32.625 29.0625 34.9375 27.8125 33.3125Z" fill="#FFE62E"/>
<path d="M21.375 26.875C20.5625 25.8125 22.5625 23.625 23.875 25.1875C24.6875 26.1875 22.625 28.4375 21.375 26.875Z" fill="#FFE62E"/>
<path d="M22.1875 30.375C21.125 31.0625 19.125 29.0625 20.75 27.875C21.75 27.1875 23.8125 29.3125 22.1875 30.375Z" fill="#FFE62E"/>
<path d="M19.4375 24.625C18.625 23.5625 20.625 21.375 21.9375 22.9375C22.6875 23.9375 20.625 26.25 19.4375 24.625Z" fill="#FFE62E"/>
<path d="M17.8125 22.4375C17.0625 21.5 18.875 19.5 20.0625 20.9375C20.8125 21.8125 18.9375 23.875 17.8125 22.4375Z" fill="#FFE62E"/>
<path d="M16.875 20.125C16.25 19.375 17.3125 18.0625 18.375 19.3125C18.9375 20 17.8125 21.3125 16.875 20.125Z" fill="#FFE62E"/>
<path d="M16 17.5C16.5 17.125 17.5625 18.125 16.8125 18.75C16.375 19.0625 15.25 18.0625 16 17.5Z" fill="#FFE62E"/>
<path d="M15.875 18.8125C16.125 18.6875 17 19.75 16.1875 20.0625C15.6875 20.1875 15.5 18.9375 15.875 18.8125Z" fill="#FFE62E"/>
<path d="M16.3125 20.3125C16.5625 20.1875 17.625 21.4375 16.6875 21.8125C16.125 21.9375 15.9375 20.5 16.3125 20.3125Z" fill="#FFE62E"/>
<path d="M16.8125 22.0625C17.0625 21.875 18.375 22.875 17.5 23.4375C17 23.75 16.4375 22.3125 16.8125 22.0625Z" fill="#FFE62E"/>
<path d="M18.6875 25.8125C19.125 25.3125 21.6875 26.3125 20.1875 27.875C19.25 28.8125 18.0625 26.5625 18.6875 25.8125Z" fill="#FFE62E"/>
<path d="M17.5 23.75C17.8125 23.375 19.9375 24.1875 18.6875 25.4375C17.9375 26.1875 17.0625 24.3125 17.5 23.75Z" fill="#FFE62E"/>
<path d="M11.25 30.0625C11.25 30.0625 25.1875 35.1875 30.3125 43.125C33.6875 48.3125 40.375 50.25 44.4375 43.5625C32.1875 27.0625 11.25 30.0625 11.25 30.0625Z" fill="#8CC63E"/>
</svg>
