<svg width="59" height="61" viewBox="0 0 59 61" fill="none" xmlns="http://www.w3.org/2000/svg">
<rect width="59" height="61" rx="10" fill="#FFCC29"/>
<path d="M22.6111 28.2699C22.6111 28.2699 25.1533 22.0588 32.4951 22.026C39.3835 21.9951 41.0231 26.0952 41.0231 26.0952L22.6111 28.2699Z" fill="#3C66B1"/>
<path d="M30.3095 36.2346C24.2161 34.5655 18.0448 30.6939 18.0448 30.6939C18.0448 30.6939 27.6439 24.4023 35.3698 24.4023C43.0957 24.4023 46.4841 32.7067 46.4841 32.7067C46.4841 32.7067 43.0958 36.9856 35.3698 36.9856C34.8596 36.9856 34.3443 36.9582 33.8266 36.9069L30.3095 36.2346Z" fill="#8EC1ED"/>
<g opacity="0.4">
<path d="M46.4842 32.7066C46.4842 32.7066 44.3336 27.4359 39.5524 25.2925C38.4117 25.7752 35.95 28.6248 35.8895 30.9327C35.8251 33.3872 36.7602 35.6185 38.7602 36.6894C44.0962 35.7209 46.4842 32.7066 46.4842 32.7066Z" fill="#3C66B1"/>
</g>
<path opacity="0.23" d="M35.3698 34.7949C34.8596 34.7949 34.3443 34.7675 33.8266 34.7163L30.3094 34.0439C26.2643 32.9358 22.1855 30.8575 19.9 29.5852C18.7377 30.249 18.0448 30.703 18.0448 30.703C18.0448 30.703 24.2161 34.5745 30.3095 36.2437L33.8267 36.9161C34.3443 36.9673 34.8596 36.9947 35.3699 36.9947C43.0958 36.9947 46.4842 32.7159 46.4842 32.7159C46.4842 32.7159 46.2441 32.1275 45.7462 31.2641C44.3731 32.4907 41.0395 34.7949 35.3698 34.7949Z" fill="#315591"/>
<path d="M46.4841 33.2225H42.9486C42.6636 33.2225 42.4327 32.9916 42.4327 32.7067C42.4327 32.4218 42.6637 32.1909 42.9486 32.1909H46.4841C46.769 32.1909 46.9999 32.4218 46.9999 32.7067C46.9999 32.9916 46.769 33.2225 46.4841 33.2225Z" fill="#315591"/>
<path d="M35.8894 31.3796C35.8894 31.3796 35.893 37.6103 30.3097 38.9742V32.7493C30.3097 32.0569 30.8629 31.4913 31.555 31.476L35.8894 31.3796Z" fill="#315591"/>
<path d="M40.295 31.2161C40.6972 31.2161 41.0232 30.8901 41.0232 30.4879C41.0232 30.0857 40.6972 29.7597 40.295 29.7597C39.8928 29.7597 39.5668 30.0857 39.5668 30.4879C39.5668 30.8901 39.8928 31.2161 40.295 31.2161Z" fill="#315591"/>
<path d="M18.7327 30.6939C18.7327 30.6939 18.6967 28.574 17.479 27.6539C16.2613 26.7337 12.5159 25.8875 12.5159 25.8875C12.5159 25.8875 14.359 29.4817 15.5766 30.4018C15.5782 30.403 15.5799 30.4042 15.5815 30.4055C15.7759 30.5514 15.7759 30.8363 15.5815 30.9823C15.5799 30.9835 15.5782 30.9847 15.5766 30.986C14.3589 31.9062 12.5159 35.5004 12.5159 35.5004C12.5159 35.5004 16.2613 34.6541 17.479 33.7339C18.6967 32.8139 18.7327 30.6939 18.7327 30.6939Z" fill="#52A2E7"/>
<g opacity="0.23">
<path d="M18.6846 30.1568C18.5899 30.8474 18.3092 32.0322 17.4789 32.6596C16.5855 33.3347 14.3314 33.9701 13.1941 34.2605C12.7889 34.9679 12.5157 35.5005 12.5157 35.5005C12.5157 35.5005 16.2612 34.6543 17.4789 33.7341C18.6966 32.8139 18.7326 30.694 18.7326 30.694C18.7326 30.6939 18.7287 30.4789 18.6846 30.1568Z" fill="#315591"/>
</g>
<path d="M46.9308 32.9641C46.9514 32.9285 46.9678 32.8902 46.9794 32.8499C46.9807 32.8455 46.9817 32.8409 46.9829 32.8364C46.9869 32.821 46.9902 32.8053 46.9928 32.7893C46.9938 32.7836 46.9947 32.7779 46.9954 32.7721C46.9975 32.7556 46.9987 32.739 46.9992 32.7221C46.9993 32.718 46.9998 32.7138 46.9998 32.7097C46.9998 32.7087 46.9999 32.7077 46.9999 32.7068C46.9999 32.6869 46.9986 32.6675 46.9964 32.6483C46.9958 32.6437 46.9949 32.6392 46.9943 32.6347C46.992 32.6181 46.9889 32.6017 46.985 32.5856C46.9838 32.5805 46.9825 32.5754 46.9811 32.5703C46.9761 32.5519 46.9702 32.534 46.9632 32.5165C46.9626 32.515 46.9623 32.5135 46.9617 32.5119C46.9614 32.5113 46.9607 32.5096 46.9603 32.5087C46.9597 32.5072 46.9592 32.5058 46.9586 32.5043C46.8954 32.3512 46.0294 30.2958 44.2128 28.2154C43.3521 27.2296 42.4202 26.4061 41.4317 25.7507C41.2593 25.4025 40.7491 24.5177 39.6653 23.647C38.4493 22.6699 36.2337 21.5101 32.5707 21.5101C32.5448 21.5101 32.5187 21.5101 32.4927 21.5102C28.5244 21.528 25.9203 23.3068 24.4346 24.796C23.0017 26.2323 22.3175 27.6583 22.166 27.9993C20.8393 28.7234 19.7921 29.3753 19.1485 29.794C19.0044 29.0089 18.652 27.894 17.79 27.2425C16.4983 26.2664 12.7869 25.42 12.6296 25.3845C12.4338 25.3404 12.2309 25.4134 12.1082 25.5716C11.9855 25.7299 11.9655 25.9449 12.0568 26.1232C12.2436 26.4874 13.8609 29.6007 15.1189 30.6942C13.8611 31.7877 12.2436 34.9011 12.0568 35.2653C11.9655 35.4435 11.9855 35.6585 12.1082 35.8169C12.2071 35.9445 12.3585 36.0167 12.5159 36.0167C12.5536 36.0167 12.5918 36.0125 12.6296 36.004C12.7869 35.9684 16.4984 35.122 17.79 34.1459C18.6582 33.4898 19.0093 32.3812 19.1515 31.5976C20.798 32.6708 25.0516 35.2532 29.7938 36.6253V38.9745C29.7938 39.1328 29.8666 39.2825 29.9911 39.3802C30.0829 39.4523 30.1953 39.4903 30.3097 39.4903C30.3506 39.4903 30.3916 39.4856 30.4321 39.4756C31.862 39.1264 33.0738 38.4369 34.0298 37.4428C34.4865 37.4812 34.9365 37.5018 35.3699 37.5018C36.6934 37.5018 37.8908 37.3765 38.9641 37.1735C39.0002 37.1702 39.0358 37.1637 39.0704 37.153C41.2752 36.7221 42.9461 35.9636 44.0863 35.2908C45.9603 34.1849 46.8515 33.0741 46.8885 33.0272C46.8905 33.0248 46.8919 33.022 46.8938 33.0194C46.9041 33.006 46.9137 32.9921 46.9225 32.9777C46.9254 32.973 46.9281 32.9686 46.9308 32.9641ZM25.1651 25.5246C27.1268 23.5584 29.5938 22.5549 32.4974 22.5419C32.5217 22.5418 32.5457 22.5417 32.5699 22.5417C35.2038 22.5417 37.4146 23.187 38.967 24.4097C39.0431 24.4696 39.1157 24.5296 39.1854 24.5894C37.9678 24.1247 36.6892 23.8865 35.3701 23.8865C32.0862 23.8865 28.236 24.9628 23.9262 27.0854C23.8998 27.0985 23.8739 27.1115 23.8475 27.1246C24.1708 26.6459 24.605 26.0859 25.1651 25.5246ZM17.168 33.3224C16.4895 33.8352 14.7871 34.3736 13.5284 34.7145C14.2013 33.5246 15.2018 31.9167 15.8876 31.3976C15.8889 31.3967 15.8901 31.3958 15.8913 31.3948C16.1149 31.2269 16.2432 30.9713 16.2432 30.6939C16.2432 30.4163 16.1149 30.1609 15.8876 29.9902C15.203 29.473 14.2018 27.8639 13.5285 26.6732C14.7869 27.014 16.4888 27.5522 17.168 28.0654C18.13 28.7923 18.2115 30.5476 18.2165 30.6939C18.2115 30.8402 18.13 32.5955 17.168 33.3224ZM30.8255 38.2866V31.5036C30.8255 31.2187 30.5946 30.9877 30.3097 30.9877C30.0247 30.9877 29.7939 31.2187 29.7939 31.5036V35.5493C25.2923 34.1909 21.188 31.6874 19.6605 30.6942C21.8093 29.2986 29.0582 24.9181 35.3699 24.9181C36.4814 24.9181 37.5482 25.0968 38.5671 25.4507C36.8939 26.5762 35.3737 28.4621 35.3737 30.9327C35.3737 31.0573 35.3764 31.1798 35.3803 31.3014C35.3764 31.327 35.3737 31.3531 35.3737 31.3798C35.3737 31.3943 35.3669 32.8559 34.7151 34.4724C34.3924 35.2724 33.9747 35.9602 33.4671 36.537C33.4462 36.5574 33.4272 36.5797 33.4099 36.6034C32.7135 37.3723 31.8505 37.9352 30.8255 38.2866ZM34.8253 36.458C35.1537 35.9738 35.437 35.4401 35.6717 34.8584C35.7686 34.618 35.8523 34.3813 35.9254 34.1509C36.2793 35.0406 36.8012 35.7793 37.4831 36.354C36.8197 36.4282 36.1159 36.4698 35.3698 36.4698C35.1915 36.4698 35.0092 36.465 34.8253 36.458ZM38.9864 36.1193C37.2736 35.2463 36.4053 33.5025 36.4053 30.9328C36.4053 28.5825 38.0885 26.8415 39.7386 25.9458C40.0582 26.1057 40.3725 26.2839 40.6815 26.4811C40.7191 26.5143 40.761 26.5416 40.8061 26.5626C41.7252 27.167 42.5963 27.9363 43.4154 28.8705C44.5285 30.1402 45.273 31.4235 45.6681 32.1908H42.9487C42.6637 32.1908 42.4328 32.4218 42.4328 32.7066C42.4328 32.9915 42.6637 33.2225 42.9487 33.2225H45.2249C44.1761 34.1137 42.1388 35.4814 38.9864 36.1193Z" fill="black"/>
<path d="M40.2949 29.2442C39.6088 29.2442 39.0508 29.8023 39.0508 30.4882C39.0508 31.1743 39.6088 31.7323 40.2949 31.7323C40.9809 31.7323 41.5389 31.1742 41.5389 30.4882C41.5389 29.8023 40.9809 29.2442 40.2949 29.2442ZM40.2949 30.7006C40.1778 30.7006 40.0825 30.6053 40.0825 30.4883C40.0825 30.3712 40.1778 30.276 40.2949 30.276C40.4119 30.276 40.5072 30.3713 40.5072 30.4883C40.5072 30.6053 40.412 30.7006 40.2949 30.7006Z" fill="black"/>
</svg>
