<svg width="59" height="61" viewBox="0 0 59 61" fill="none" xmlns="http://www.w3.org/2000/svg">
<rect width="59" height="61" rx="10" fill="#FFCC29"/>
<path d="M30.0625 20.7265L31.8338 16L34.4535 19.5309L38.3254 18.0455L38.9003 22.7247L35.8223 25.8028L30.0625 20.7265Z" fill="#9AC676"/>
<path d="M40.8984 31.5625L45.6249 29.7916L42.094 27.1715L43.5794 23.3001L38.9002 22.7247L35.8221 25.8028L40.8984 31.5625Z" fill="#85B932"/>
<path d="M35.9068 25.7182C35.9068 25.7182 36.0031 25.8145 35.1485 24.9603C34.0974 23.9093 32.7553 22.5667 31.9889 21.8003C30.599 20.4096 25.0065 18.4199 20.1727 23.2536C15.339 28.0883 14.8278 36.3372 15.0386 39.2563C15.26 42.3209 16.6815 43.9321 17.1872 44.4382L35.9068 25.7182Z" fill="#EA5756"/>
<path d="M35.9068 25.7183C35.9068 25.7183 35.8105 25.6219 36.6651 26.477C37.7158 27.5272 39.0579 28.8698 39.8247 29.6361C41.2146 31.026 43.2052 36.6185 38.371 41.4523C33.5372 46.2861 25.2871 46.7972 22.3687 46.586C19.3042 46.3646 17.693 44.9435 17.1873 44.4382L35.9068 25.7183Z" fill="#E8413E"/>
<g opacity="0.75">
<path d="M24.9064 26.8335C24.1996 27.5399 23.3083 27.795 22.9158 27.4021C22.5232 27.0101 22.778 26.1187 23.4848 25.4123C24.1911 24.7052 25.0825 24.4509 25.475 24.8437C25.8675 25.2358 25.6127 26.1272 24.9064 26.8335Z" fill="#B31E24"/>
<path d="M22.6315 33.9427C21.9248 34.649 21.0338 34.9042 20.6414 34.5113C20.2489 34.1184 20.5032 33.227 21.21 32.5207C21.9167 31.8144 22.8077 31.5592 23.2002 31.952C23.593 32.3449 23.3383 33.2363 22.6315 33.9427Z" fill="#B31E24"/>
<path d="M30.5931 32.5207C29.8863 33.2271 28.9954 33.4822 28.6029 33.0893C28.21 32.6964 28.4648 31.8059 29.1715 31.0987C29.8783 30.3923 30.7693 30.1372 31.1621 30.53C31.5546 30.9229 31.2998 31.8144 30.5931 32.5207Z" fill="#B31E24"/>
<path d="M35.7116 37.6391C35.0052 38.3455 34.1142 38.6006 33.7214 38.2078C33.3285 37.8149 33.5832 36.9243 34.2896 36.2171C34.9963 35.5108 35.8873 35.2556 36.2802 35.6494C36.6731 36.0414 36.4184 36.9328 35.7116 37.6391Z" fill="#B31E24"/>
<path d="M28.8871 40.4831C28.1804 41.1895 27.2894 41.4438 26.8965 41.0518C26.5041 40.6589 26.7588 39.7675 27.4652 39.0612C28.1719 38.3548 29.0629 38.0997 29.4557 38.4926C29.8486 38.8854 29.594 39.7768 28.8871 40.4831Z" fill="#B31E24"/>
<path d="M21.778 41.3357C21.0717 42.042 20.1807 42.2972 19.7878 41.9043C19.3957 41.5123 19.6501 40.6209 20.3568 39.9137C21.0632 39.2074 21.9546 38.953 22.347 39.3451C22.7395 39.738 22.4853 40.6293 21.778 41.3357Z" fill="#B31E24"/>
</g>
</svg>
