<svg width="59" height="61" viewBox="0 0 59 61" fill="none" xmlns="http://www.w3.org/2000/svg">
<rect width="59" height="61" rx="10" fill="#FFCC29"/>
<path d="M30 23.2222C20 23.2222 11.1111 27.0678 11.1111 33.2222C11.1111 37.8378 15.5555 41.6833 22.2222 41.6833C26.06 41.6833 30.1233 39.3667 33.03 39.3667C33.1333 39.3667 33.2344 39.37 33.3333 39.3756C37.6766 39.6367 37.7778 43.2222 43.3333 43.2222C45.9344 43.2222 48.8889 40.9144 48.8889 35.53C48.8889 28.6067 41.1111 23.2222 30 23.2222Z" fill="#FFD983"/>
<path d="M46.6666 31H48.8889V35.4444H46.6666V31ZM11.1111 28.7778H13.3333V33.2222H11.1111V28.7778Z" fill="#FFD983"/>
<path d="M43.3334 38.0089C40.8101 38.0089 39.6867 37.17 38.3834 36.2C37.1956 35.3144 35.8489 34.3122 33.4301 34.1656C33.2969 34.1575 33.1635 34.1535 33.0301 34.1533C31.4378 34.1533 29.7212 34.69 27.9045 35.26C26.0023 35.8544 24.0356 36.47 22.2234 36.47C16.4289 36.47 12.2234 33.2344 12.2234 28.7778C12.2234 22.7822 21.3834 19.5467 30.0012 19.5467C40.3023 19.5467 47.7789 24.3989 47.7789 31.0856C47.7778 36.1644 45.1189 38.0089 43.3334 38.0089Z" fill="#A0041E"/>
<path d="M30 20.3167C39.6566 20.3167 46.6666 24.8456 46.6666 31.0856C46.6666 35.69 44.3778 37.2389 43.3333 37.2389C41.2955 37.2389 40.4611 36.6178 39.1966 35.6756C37.9378 34.7378 36.3711 33.57 33.5255 33.3989C33.3605 33.3886 33.1953 33.3834 33.03 33.3833C31.1989 33.3833 29.3755 33.9544 27.4466 34.5578C25.6511 35.12 23.7955 35.7 22.2222 35.7C17.8044 35.7 13.3333 33.3211 13.3333 28.7778C13.3333 23.2822 21.9211 20.3167 30 20.3167ZM30 18.7778C20 18.7778 11.1111 22.6233 11.1111 28.7778C11.1111 33.3933 15.5555 37.2389 22.2222 37.2389C26.06 37.2389 30.1233 34.9222 33.03 34.9222C33.1333 34.9222 33.2344 34.9256 33.3333 34.9311C37.6766 35.1922 37.7778 38.7778 43.3333 38.7778C45.9344 38.7778 48.8889 36.47 48.8889 31.0856C48.8889 24.1622 41.1111 18.7778 30 18.7778Z" fill="#FFE8B6"/>
<path d="M27.9567 20.3811C27.9567 20.3811 31.1111 20.3167 33.3333 21.8544C34.4444 22.6233 33.7056 24.3544 33.7056 24.3544L35.5556 24.9322C35.5556 24.9322 35.4867 24.0044 38.8889 23.3933C41.39 22.9444 43.9356 24.9322 43.9356 24.9322C43.9356 24.9322 41.1111 21.0856 35.5556 20.3167C30 19.5467 27.9567 20.3811 27.9567 20.3811Z" fill="#FFE8B6"/>
<path d="M37.7778 26.47C37.7778 28.1689 35.7878 29.5467 33.3334 29.5467C30.8789 29.5467 28.8889 28.1689 28.8889 26.47C28.8889 24.7711 30.8789 23.3933 33.3334 23.3933C35.7878 23.3933 37.7778 24.7711 37.7778 26.47Z" fill="#E6E7E8"/>
<path d="M35.5555 26.47C35.5555 27.32 34.56 28.0089 33.3333 28.0089C32.1066 28.0089 31.1111 27.32 31.1111 26.47C31.1111 25.62 32.1066 24.9322 33.3333 24.9322C34.56 24.9322 35.5555 25.62 35.5555 26.47Z" fill="#A7A9AC"/>
</svg>
