<svg width="59" height="61" viewBox="0 0 59 61" fill="none" xmlns="http://www.w3.org/2000/svg">
<rect width="59" height="61" rx="10" fill="#FFCC29"/>
<path d="M35.1737 16.7919V18.5033C35.1737 20.7852 38.0261 27.6309 38.0261 29.3423V44.7451C38.0261 45.69 37.2596 46.4566 36.3147 46.4566H28.328C27.3832 46.4566 26.6166 45.69 26.6166 44.7451V29.3423C26.6166 27.6309 29.4689 20.7852 29.4689 18.5033V16.7919" fill="white"/>
<path d="M26.6167 30.4833H38.0262V39.6108H26.6167V30.4833Z" fill="#67DDE0"/>
<path d="M36.3147 47.027H28.328C27.0698 47.027 26.0461 46.0033 26.0461 44.7451V29.3423C26.0461 28.4582 26.6489 26.5941 27.3467 24.4359C28.074 22.186 28.8986 19.6362 28.8986 18.5033V16.7919H30.0395V18.5033C30.0395 19.8161 29.2225 22.3431 28.4322 24.7869C27.8202 26.6802 27.1871 28.6379 27.1871 29.3423V44.7451C27.1871 45.3744 27.6988 45.8861 28.328 45.8861H36.3147C36.9439 45.8861 37.4556 45.3744 37.4556 44.7451V29.3423C37.4556 28.6379 36.8224 26.6802 36.2105 24.7869C35.4202 22.3432 34.6032 19.8161 34.6032 18.5033V16.7919H35.7441V18.5033C35.7441 19.6362 36.5687 22.1861 37.296 24.4359C37.9937 26.5941 38.5965 28.4582 38.5965 29.3423V44.7451C38.5966 46.0033 37.5729 47.027 36.3147 47.027Z" fill="#4D5152"/>
<path d="M26.6167 29.9128H38.0262V31.0537H26.6167V29.9128ZM26.6167 39.0404H38.0262V40.1813H26.6167V39.0404Z" fill="#4D5152"/>
<path d="M29.4691 14.51H35.1738C35.8039 14.51 36.3147 15.0208 36.3147 15.6509C36.3147 16.281 35.8039 16.7918 35.1738 16.7918H29.4691C28.839 16.7918 28.3281 16.281 28.3281 15.6509C28.3281 15.0208 28.839 14.51 29.4691 14.51Z" fill="#FFB957"/>
<path d="M35.1737 17.3624H29.469C28.5253 17.3624 27.7576 16.5947 27.7576 15.6509C27.7576 14.7072 28.5253 13.9395 29.469 13.9395H35.1737C36.1175 13.9395 36.8852 14.7072 36.8852 15.6509C36.8852 16.5947 36.1175 17.3624 35.1737 17.3624ZM29.469 15.0805C29.1545 15.0805 28.8985 15.3364 28.8985 15.6509C28.8985 15.9655 29.1545 16.2214 29.469 16.2214H35.1737C35.4882 16.2214 35.7442 15.9655 35.7442 15.6509C35.7442 15.3364 35.4882 15.0805 35.1737 15.0805H29.469Z" fill="#4D5152"/>
<path d="M15.2072 23.6375H25.4757V25.9194H15.2072V23.6375ZM25.4757 25.9195H15.2072L11.7843 33.9061H22.0529L25.4757 25.9195Z" fill="white"/>
<path d="M25.4757 25.9195L22.0529 33.9061H28.8985L25.4757 25.9195ZM22.0529 33.9061H28.8985V46.4565H22.0529V33.9061Z" fill="#ACF0F2"/>
<path d="M11.7843 33.9061H22.0528V46.4565H11.7843V33.9061Z" fill="white"/>
<path d="M29.469 47.027H11.2139V33.7891L14.8311 25.349H25.8518L29.469 33.7891V47.027ZM12.3548 45.8861H28.3281V34.0231L25.0997 26.4899H15.5832L12.3548 34.0231V45.8861Z" fill="#4D5152"/>
<path d="M26.0462 25.9195H24.9052V24.208H15.7777V25.9195H14.6367V23.0671H26.0462V25.9195Z" fill="#4D5152"/>
<path d="M20.3414 29.9128C20.3414 30.8577 19.5749 31.6242 18.63 31.6242C17.6852 31.6242 16.9186 30.8577 16.9186 29.9128C16.9186 28.968 17.6852 28.2013 18.63 28.2013C19.5749 28.2013 20.3414 28.968 20.3414 29.9128Z" fill="#67DDE0"/>
<path d="M47.1538 39.6108C47.1538 43.3914 44.0886 46.4565 40.3081 46.4565C36.5276 46.4565 33.4624 43.3914 33.4624 39.6108C33.4624 35.8303 36.5275 32.7652 40.3081 32.7652C44.0886 32.7652 47.1538 35.8303 47.1538 39.6108Z" fill="#FFB957"/>
<path d="M40.308 47.027C36.2186 47.027 32.8918 43.7003 32.8918 39.6108C32.8918 35.5214 36.2186 32.1947 40.308 32.1947C44.3974 32.1947 47.7242 35.5214 47.7242 39.6108C47.7242 43.7003 44.3975 47.027 40.308 47.027ZM40.308 33.3356C36.8478 33.3356 34.0328 36.1507 34.0328 39.6108C34.0328 43.071 36.8478 45.8861 40.308 45.8861C43.7682 45.8861 46.5832 43.071 46.5832 39.6108C46.5832 36.1507 43.7682 33.3356 40.308 33.3356Z" fill="#4D5152"/>
<path d="M39.7376 34.4766H40.8785V35.6175H39.7376V34.4766ZM40.308 44.7451V43.6042C42.51 43.6042 44.3013 41.8128 44.3013 39.6109H45.4422C45.4423 42.4418 43.1389 44.7451 40.308 44.7451ZM14.6367 43.6042H19.2005V44.7451H14.6367V43.6042ZM11.7843 33.3356H22.0528V34.4766H11.7843V33.3356Z" fill="#4D5152"/>
<path d="M22.6234 46.4565H21.4824V33.7888L24.9515 25.6947L26 26.1443L22.6234 34.0228V46.4565Z" fill="#4D5152"/>
</svg>
