<svg width="59" height="61" viewBox="0 0 59 61" fill="none" xmlns="http://www.w3.org/2000/svg">
<rect width="59" height="61" rx="10" fill="#FFCC29"/>
<g clip-path="url(#clip0_239_1203)">
<path d="M33.2972 25.158C35.1792 21.5878 34.6455 17.6081 32.1052 16.269C29.5649 14.93 25.98 16.7387 24.098 20.3089C22.2161 23.8791 22.7497 27.8588 25.29 29.1979C27.8303 30.537 31.4152 28.7283 33.2972 25.158Z" fill="#FF8D36"/>
<path opacity="0.2" d="M32.1061 16.2691C31.8025 16.1091 31.4838 15.9945 31.155 15.922C32.4706 17.7517 32.4881 20.8174 31.0054 23.6301C29.3484 26.7736 26.3713 28.5509 23.9493 28.017C24.3037 28.5099 24.7514 28.914 25.2905 29.1982C27.8307 30.5373 31.4156 28.7285 33.2977 25.1583C35.1798 21.5881 34.6463 17.6082 32.1061 16.2691Z" fill="black"/>
<path d="M42.0512 25.7531C43.9332 22.1829 43.3995 18.2031 40.8593 16.8641C38.319 15.525 34.734 17.3337 32.8521 20.9039C30.9701 24.4741 31.5038 28.4539 34.044 29.793C36.5843 31.132 40.1693 29.3233 42.0512 25.7531Z" fill="#69B551"/>
<path opacity="0.2" d="M40.9167 16.8973C41.9838 18.7527 41.908 21.5993 40.5235 24.2257C38.6415 27.7959 35.0565 29.6046 32.5162 28.2655C32.4969 28.2554 32.4788 28.2436 32.4597 28.2331C32.8432 28.8999 33.373 29.4398 34.0445 29.7938C36.5847 31.1329 40.1697 29.3242 42.0518 25.7539C43.9195 22.211 43.4072 18.2659 40.9167 16.8973Z" fill="black"/>
<path d="M18.6074 22.9222C19.6819 20.1765 17.4144 16.452 15.4644 17.6046C13.5144 18.7572 15.6838 22.5396 18.6074 22.9222Z" fill="#8FE673"/>
<path d="M18.6074 22.9222C17.4257 20.2209 13.1887 19.1907 12.6249 21.3846C12.0611 23.5784 16.2696 24.719 18.6074 22.9222Z" fill="#76CC5B"/>
<path d="M18.6074 22.9222C16.8106 20.5843 17.9513 16.3758 20.1451 16.9397C22.3389 17.5036 21.3088 21.7405 18.6074 22.9222Z" fill="#76CC5B"/>
<path d="M19.0878 23.2338C19.1029 23.2106 19.1165 23.1865 19.1279 23.1614C19.1297 23.1576 19.1311 23.1536 19.1328 23.1497C19.1447 23.1221 19.155 23.0939 19.1625 23.0648L20.1109 19.3753C20.1896 19.0687 20.0051 18.7563 19.6985 18.6776C19.3919 18.5986 19.0796 18.7834 19.0008 19.0899L18.3968 21.4396L17.1625 19.3512C17.0015 19.0787 16.65 18.9883 16.3776 19.1494C16.1051 19.3104 16.0148 19.6619 16.1758 19.9343L17.4102 22.0228L15.0606 21.4189C14.754 21.3399 14.4416 21.5247 14.3629 21.8312C14.2841 22.1378 14.4687 22.4501 14.7753 22.5289L18.4632 23.4768H18.4634L18.4649 23.4772C18.4798 23.4811 18.4947 23.4832 18.5096 23.4858C18.5183 23.4873 18.5267 23.4896 18.5354 23.4907C18.5358 23.4908 18.5362 23.4908 18.5367 23.4909C18.5606 23.4939 18.5844 23.4954 18.608 23.4954C18.6092 23.4954 18.6104 23.4951 18.6116 23.4951C18.639 23.495 18.6663 23.4924 18.6937 23.4882C18.7029 23.4869 18.7118 23.4846 18.7209 23.4828C18.7401 23.4789 18.7592 23.4742 18.7782 23.4683C18.7879 23.4652 18.7976 23.4619 18.8072 23.4584C18.8248 23.4518 18.8421 23.4441 18.8592 23.4357C18.8685 23.4311 18.878 23.4267 18.8871 23.4216C18.891 23.4194 18.8951 23.4178 18.8992 23.4155C18.9182 23.4043 18.9361 23.3919 18.9532 23.3789C18.9541 23.3782 18.9551 23.3778 18.956 23.3771C18.9581 23.3755 18.9598 23.3735 18.9618 23.3719C18.9824 23.3557 19.0016 23.3383 19.0195 23.3199C19.0221 23.3172 19.0248 23.3147 19.0273 23.3119C19.0462 23.2917 19.0631 23.27 19.0786 23.2476C19.0817 23.2432 19.0848 23.2386 19.0878 23.2338Z" fill="#599944"/>
<path d="M20.4136 30.6326C23.0144 30.6326 25.1228 28.5242 25.1228 25.9234C25.1228 23.3226 23.0144 21.2142 20.4136 21.2142C17.8127 21.2142 15.7043 23.3226 15.7043 25.9234C15.7043 28.5242 17.8127 30.6326 20.4136 30.6326Z" fill="#FF704D"/>
<path opacity="0.2" d="M20.4138 21.2144C20.0183 21.2144 19.6346 21.2638 19.2676 21.3556C21.3143 21.8676 22.8304 23.7181 22.8304 25.9234C22.8304 28.1287 21.3143 29.9792 19.2676 30.4912C19.6346 30.5829 20.0183 30.6324 20.4138 30.6324C23.0145 30.6324 25.1228 28.5241 25.1228 25.9234C25.1228 23.3227 23.0145 21.2144 20.4138 21.2144Z" fill="black"/>
<path d="M24.4306 34.1911C27.45 34.1911 29.8977 31.7803 29.8977 28.8064C29.8977 25.8325 27.45 23.4217 24.4306 23.4217C21.4111 23.4217 18.9634 25.8325 18.9634 28.8064C18.9634 31.7803 21.4111 34.1911 24.4306 34.1911Z" fill="#FFC552"/>
<path opacity="0.2" d="M24.9934 23.4496C26.5601 24.3966 27.6055 26.099 27.6055 28.0423C27.6055 31.0165 25.1577 33.4274 22.1381 33.4274C21.948 33.4274 21.7603 33.4178 21.5751 33.3991C22.4062 33.9014 23.3838 34.1915 24.4304 34.1915C27.4499 34.1915 29.8978 31.7805 29.8978 28.8063C29.8978 26.0195 27.7483 23.7272 24.9934 23.4496Z" fill="black"/>
<path d="M30.8682 33.3208C33.9864 33.3208 36.5142 30.831 36.5142 27.7596C36.5142 24.6883 33.9864 22.1984 30.8682 22.1984C27.75 22.1984 25.2222 24.6883 25.2222 27.7596C25.2222 30.831 27.75 33.3208 30.8682 33.3208Z" fill="#9773BF"/>
<path opacity="0.2" d="M32.7869 22.5287C33.6789 23.5121 34.2218 24.8091 34.2218 26.2316C34.2218 29.3029 31.6939 31.7927 28.5757 31.7927C27.9019 31.7927 27.256 31.6759 26.6569 31.4627C27.6908 32.6026 29.194 33.3208 30.868 33.3208C33.9863 33.3208 36.5141 30.8311 36.5141 27.7597C36.5141 25.3522 34.9604 23.3024 32.7869 22.5287Z" fill="black"/>
<path d="M45.3405 28.4189C45.3405 27.274 44.4124 26.3459 43.2676 26.3459C42.8878 26.3459 42.5323 26.4485 42.2263 26.6268C41.9507 25.8053 41.1753 25.2132 40.2611 25.2132C39.8813 25.2132 39.5258 25.3158 39.2197 25.494C38.9441 24.6726 38.1687 24.0805 37.2545 24.0805C36.3402 24.0805 35.5648 24.6726 35.2893 25.494C34.9832 25.3158 34.6276 25.2132 34.2479 25.2132C33.3337 25.2132 32.5582 25.8053 32.2827 26.6268C31.9766 26.4485 31.6211 26.3459 31.2414 26.3459C30.0965 26.3459 29.1685 27.2741 29.1685 28.4189V31.5341H45.3406V28.4189H45.3405Z" fill="#8FE673"/>
<g opacity="0.2">
<path d="M43.2675 26.346C42.9978 26.346 42.7408 26.3986 42.5045 26.4925C43.2706 26.797 43.8123 27.5446 43.8123 28.419V31.5342H45.3405V28.419C45.3405 27.274 44.4124 26.346 43.2675 26.346Z" fill="black"/>
</g>
<path d="M29.8979 30.77L15.0902 32.8758V45.1725H44.7449V32.8758L29.8979 30.77Z" fill="#F2AE5D"/>
<path opacity="0.2" d="M15.0902 32.8758V35.1548H44.7449V32.8758L29.8979 30.77L15.0902 32.8758Z" fill="black"/>
<path d="M46.4267 28.6773H13.369V32.8623H46.4267V28.6773Z" fill="#F2AE5D"/>
<path d="M36.3519 16.54C35.654 16.8921 34.9928 17.3643 34.3885 17.9336C33.9365 16.9727 33.252 16.2331 32.3736 15.77C30.7763 14.9279 28.7841 15.1354 26.908 16.3394C26.6416 16.5103 26.5642 16.8648 26.7353 17.1312C26.9063 17.3977 27.2607 17.4749 27.5272 17.304C29.0458 16.3295 30.6173 16.1399 31.8392 16.784C32.6143 17.1926 33.1947 17.9055 33.5303 18.856C33.5467 18.9025 33.237 19.2327 33.2014 19.2809C32.8357 19.7773 32.5046 20.3174 32.2291 20.8755C32.1977 20.9392 31.8729 21.7127 31.8566 21.7102C29.9824 21.421 28.0435 21.9836 26.6429 23.2685C26.634 23.2651 26.6252 23.2621 26.6163 23.2588C26.0145 23.0271 25.3764 22.8941 24.7324 22.8637C24.7257 22.8634 24.719 22.8627 24.7123 22.8624C24.7114 22.8611 24.7103 22.8599 24.7095 22.8586C24.658 22.7865 24.6046 22.7163 24.55 22.6472C24.5478 22.6444 24.5455 22.6416 24.5433 22.6388C24.3717 22.4229 24.1853 22.2225 23.9857 22.0386C24.1498 21.5431 24.3578 21.0553 24.6062 20.5841C24.9927 19.851 25.4619 19.1828 26.0011 18.5977C26.2156 18.3651 26.2008 18.0024 25.9681 17.788C25.7353 17.5734 25.3727 17.5882 25.1583 17.821C24.5518 18.4789 24.0249 19.2288 23.5923 20.0496C23.3722 20.467 23.1807 20.8965 23.019 21.3331C22.5344 21.0583 22.0064 20.861 21.4521 20.7511C21.9391 19.6663 22.0489 18.5208 21.7164 17.6695C21.4617 17.0173 20.9544 16.5638 20.288 16.3926C20.1087 16.3465 19.9282 16.3232 19.7516 16.3232C18.9921 16.3232 18.3139 16.7504 17.8374 17.5C17.3404 17.0596 16.7853 16.8243 16.2213 16.8243C15.8568 16.8243 15.504 16.9235 15.173 17.1192C14.3222 17.6221 13.9876 18.561 14.2258 19.6366C13.1133 19.7052 12.315 20.2972 12.0702 21.2497C11.9041 21.896 12.0341 22.5185 12.4461 23.0498C13.0215 23.7919 14.1161 24.2805 15.3667 24.3738C15.2144 24.8664 15.132 25.3895 15.132 25.9314C15.132 26.6931 15.293 27.4322 15.6026 28.1123H13.3695C13.0529 28.1123 12.7964 28.369 12.7964 28.6854V32.8704C12.7964 33.1869 13.053 33.4435 13.3695 33.4435H14.4977V45.1671C14.4977 45.4836 14.7543 45.7401 15.0708 45.7401H44.7254C45.042 45.7401 45.2985 45.4835 45.2985 45.1671V33.4434H46.4268C46.7434 33.4434 46.9999 33.1868 46.9999 32.8704V28.6853C46.9999 28.3688 46.7434 28.1123 46.4268 28.1123H45.8946C45.7384 26.8011 44.6204 25.7808 43.2679 25.7808C43.0577 25.7808 42.8494 25.8072 42.6466 25.8561C43.0449 25.0672 43.3419 24.2446 43.5276 23.4071C43.5961 23.0982 43.4012 22.7921 43.0922 22.7235C42.7833 22.6552 42.4771 22.85 42.4086 23.159C42.2622 23.8192 42.0383 24.4705 41.7417 25.1004C41.7353 25.0961 41.7286 25.0925 41.7223 25.0883C41.2955 24.8029 40.7739 24.6484 40.2612 24.6482C40.0023 24.6482 39.7456 24.6863 39.4996 24.7603C39.0242 23.9975 38.1827 23.5155 37.2546 23.5155C36.7253 23.5155 36.1958 23.6814 35.7588 23.9795C35.0301 23.0615 34.0675 22.3797 32.9797 21.9944C32.9686 21.9905 33.3516 21.1951 33.3888 21.1255C34.6205 18.8205 37.7302 15.8708 40.593 17.3798C41.7972 18.0146 42.5279 19.3947 42.5978 21.1663C42.6102 21.4826 42.8763 21.7287 43.1931 21.7163C43.5094 21.7038 43.7555 21.4373 43.7431 21.121C43.6566 18.9298 42.7033 17.1967 41.1275 16.3659C39.7306 15.6292 38.0346 15.6912 36.3519 16.54ZM24.4077 24.0029C24.4154 24.0029 24.4231 24.0023 24.4307 24.0023C24.8739 24.0023 25.3112 24.0597 25.7388 24.1763C25.7538 24.1803 25.7688 24.1842 25.7838 24.1884C25.7934 24.1911 25.8027 24.1945 25.8122 24.1973C25.4239 24.7305 25.1281 25.3181 24.9317 25.9389C24.9292 25.9465 24.927 25.9542 24.9246 25.962C24.7201 26.6173 24.628 27.3063 24.6541 27.9923C24.6548 28.0116 24.6557 28.0307 24.6566 28.05C24.6576 28.0708 24.6581 28.0916 24.6593 28.1124H19.5912C19.5945 28.0905 19.5973 28.0685 19.6009 28.0468C19.7646 27.0384 20.2655 26.0954 20.9985 25.3855C21.9128 24.5001 23.1229 24.0091 24.4077 24.0029ZM22.9577 22.6692C22.9624 22.6731 22.9665 22.6778 22.9713 22.6817C23.0832 22.7699 23.1893 22.8639 23.291 22.9624C21.5408 23.2914 19.9898 24.4071 19.1252 25.9652C18.7761 26.5942 18.5425 27.3041 18.446 28.0241C18.4425 28.0499 18.4382 28.0754 18.4351 28.1012C18.4346 28.105 18.4339 28.1086 18.4336 28.1123H16.9006C16.4927 27.4579 16.2783 26.7097 16.2783 25.9314C16.2783 24.5067 17.042 23.1517 18.2539 22.4063C18.2601 22.4024 18.266 22.3983 18.2722 22.3946C19.6826 21.5425 21.6674 21.5823 22.9577 22.6692ZM13.3519 22.3474C13.1597 22.0995 13.1035 21.8337 13.1802 21.5351C13.3415 20.9078 13.9575 20.7761 14.446 20.7761C14.607 20.7761 14.7777 20.7911 14.9531 20.8206C15.164 20.8561 15.3776 20.7708 15.5063 20.5997C15.6349 20.4284 15.6574 20.1999 15.5645 20.0069C15.4074 19.6804 14.9569 18.5784 15.7564 18.1059C15.9106 18.0148 16.0627 17.9705 16.2215 17.9705C16.6436 17.9705 17.115 18.2922 17.5148 18.853C17.6391 19.0274 17.8503 19.118 18.0621 19.0877C18.274 19.0577 18.4516 18.9119 18.5223 18.7099C18.7945 17.9332 19.2541 17.4694 19.7518 17.4694C19.8321 17.4694 19.9166 17.4806 20.0028 17.5028C20.3156 17.5832 20.5269 17.7741 20.649 18.0866C20.9002 18.7299 20.7229 19.7518 20.2204 20.6529C20.2042 20.6535 20.1883 20.6548 20.1722 20.6556C20.0397 20.6615 19.9073 20.6727 19.7758 20.6886L20.1112 19.3833C20.1899 19.0767 20.0054 18.7644 19.6988 18.6857C19.3922 18.6068 19.0799 18.7915 19.0012 19.098L18.5108 21.0057C18.5069 21.0072 18.503 21.0089 18.499 21.0104C18.4019 21.0482 18.3054 21.0884 18.2108 21.1321L17.1628 19.359C17.0018 19.0866 16.6504 18.9961 16.3779 19.1573C16.1054 19.3183 16.0151 19.6698 16.1761 19.9422L17.2272 21.7207C17.1428 21.7847 17.0603 21.851 16.9799 21.9199L15.0609 21.4267C14.7542 21.3478 14.442 21.5326 14.3633 21.8391C14.2845 22.1457 14.4691 22.458 14.7756 22.5368L16.1055 22.8785C16.0336 22.9799 15.9653 23.0838 15.9007 23.1902C15.8993 23.1924 15.8979 23.1946 15.8966 23.1968C15.8869 23.2128 15.8767 23.2284 15.8672 23.2444C14.792 23.2607 13.7766 22.8951 13.3519 22.3474ZM45.8538 29.2584V32.2972H19.8493C19.5328 32.2972 19.2762 32.5539 19.2762 32.8703C19.2762 33.1868 19.5329 33.4434 19.8493 33.4434H44.1524V38.4397C43.2323 38.4322 42.2991 38.4341 41.4223 38.4456C41.1058 38.4497 40.8527 38.7096 40.8568 39.0261C40.8609 39.34 41.1166 39.5917 41.4297 39.5917C41.4322 39.5917 41.4347 39.5917 41.4374 39.5917C42.3093 39.5802 43.2374 39.5785 44.1524 39.586V44.594H15.6439V39.5908C23.4986 39.5779 31.1618 39.5783 39.0499 39.5917C39.0502 39.5917 39.0506 39.5917 39.051 39.5917C39.3671 39.5917 39.6236 39.3357 39.624 39.0196C39.6246 38.7031 39.3684 38.4462 39.0519 38.4456C31.1633 38.432 23.4992 38.4317 15.644 38.4447V33.4434H17.71C18.0265 33.4434 18.2831 33.1868 18.2831 32.8704C18.2831 32.5539 18.0264 32.2973 17.71 32.2973H15.0708H13.9425V29.2585L45.8538 29.2584ZM35.4914 26.0383C35.8509 25.903 35.8795 25.4705 36.1044 25.2011C36.8441 24.3151 38.3107 24.5933 38.6766 25.6842C38.6835 25.7046 38.6915 25.7246 38.7004 25.7439C38.7633 25.879 38.877 25.9853 39.0182 26.0384C39.3432 26.1608 39.657 25.8855 39.967 25.8235C40.5217 25.7124 41.1057 25.9343 41.4496 26.3816C41.455 26.3887 41.4613 26.395 41.4671 26.4018C41.6821 26.6555 41.6748 27.0394 42.0246 27.171C42.1857 27.2316 42.3659 27.2166 42.5148 27.13C42.7428 26.9971 43.0033 26.927 43.2679 26.927C43.9871 26.927 44.5896 27.4358 44.7345 28.1123H29.7754C29.7979 28.0073 29.8316 27.9075 29.8759 27.81C30.2361 27.0164 31.2406 26.6909 31.9945 27.1299C32.1415 27.2154 32.3258 27.2309 32.4847 27.171C32.646 27.1103 32.7715 26.9803 32.8262 26.8169C33.0314 26.2053 33.6029 25.7943 34.2481 25.7943C34.6651 25.7942 35.0845 26.1916 35.4914 26.0383ZM34.8868 24.7264C34.8752 24.7236 34.8634 24.7215 34.8518 24.7188C34.6542 24.6725 34.4511 24.648 34.2481 24.648C33.32 24.648 32.4786 25.13 32.0032 25.8928C31.7572 25.8189 31.5005 25.7807 31.2417 25.7807C29.9724 25.7807 28.829 26.7559 28.629 28.0081C28.6236 28.0426 28.6184 28.0775 28.6141 28.1121H25.8087C25.6967 28.1117 25.8957 26.9517 25.9126 26.8543C26.3991 24.0385 29.3539 22.2604 32.0895 22.9257C33.1849 23.1922 34.1915 23.843 34.8868 24.7264Z" fill="black"/>
</g>
<defs>
<clipPath id="clip0_239_1203">
<rect width="35" height="35" fill="white" transform="translate(12 13)"/>
</clipPath>
</defs>
</svg>
