<svg width="59" height="61" viewBox="0 0 59 61" fill="none" xmlns="http://www.w3.org/2000/svg">
<rect width="59" height="61" rx="10" fill="#FFCC29"/>
<path d="M20.7761 28.4458H38.8044V16.7286C38.8044 15.5541 37.8429 14.5926 36.6673 14.5926H22.9133C21.7376 14.5926 20.7762 15.5541 20.7762 16.7286L20.7761 28.4458Z" fill="#AD7A68"/>
<path d="M28.3215 16.8132H22.5796V22.5551H28.3215V16.8132Z" fill="#AD7A68"/>
<path d="M22.5797 22.5551H25.4507H28.3216L27.5292 21.4707H25.4507H23.3721L22.5797 22.5551Z" fill="#A06D5E"/>
<path d="M28.3217 22.5551V19.6841V16.8132L27.2362 17.6056V19.6841V21.4707L28.3217 22.5551Z" fill="#BC9385"/>
<path d="M22.5797 22.5551V16.8132L23.6641 17.6056V19.6841V21.4707L22.5797 22.5551Z" fill="#BC9385"/>
<path d="M22.5797 16.8132H28.3216L27.2362 17.8986H23.6641L22.5797 16.8132Z" fill="#B3897D"/>
<path d="M37.0009 16.8132H31.259V22.5551H37.0009V16.8132Z" fill="#AD7A68"/>
<path d="M31.259 22.5551H34.13H37.0009L36.2085 21.4707H34.13H32.0514L31.259 22.5551Z" fill="#A06D5E"/>
<path d="M37.001 22.5551V19.6841V16.8132L35.9166 17.6056V19.6841V21.4707L37.001 22.5551Z" fill="#BC9385"/>
<path d="M31.259 22.5551V16.8132L32.3445 17.6056V19.6841V21.4707L31.259 22.5551Z" fill="#BC9385"/>
<path d="M31.259 16.8132H37.0009L35.9166 17.8986H32.3445L31.259 16.8132Z" fill="#B3897D"/>
<path d="M28.3216 23.7735H22.5797V29.5154H28.3216V23.7735Z" fill="#AD7A68"/>
<path d="M22.5797 29.5155H25.4507H28.3216L27.5292 28.4312H25.4507H23.3721L22.5797 29.5155Z" fill="#A06D5E"/>
<path d="M28.3217 29.5155V26.6445V23.7735L27.2362 24.566V26.6445V28.4312L28.3217 29.5155Z" fill="#BC9385"/>
<path d="M22.5797 29.5155V23.7735L23.6641 24.566V26.6445V28.4312L22.5797 29.5155Z" fill="#BC9385"/>
<path d="M22.5797 23.7735H28.3216L27.2362 24.8591H23.6641L22.5797 23.7735Z" fill="#B3897D"/>
<path d="M37.0009 23.7735H31.259V29.5154H37.0009V23.7735Z" fill="#AD7A68"/>
<path d="M31.259 29.5155H34.13H37.0009L36.2085 28.4312H34.13H32.0514L31.259 29.5155Z" fill="#A06D5E"/>
<path d="M37.001 29.5155V26.6445V23.7735L35.9166 24.566V26.6445V28.4312L37.001 29.5155Z" fill="#BC9385"/>
<path d="M31.259 29.5155V23.7735L32.3445 24.566V26.6445V28.4312L31.259 29.5155Z" fill="#BC9385"/>
<path d="M31.259 23.7735H37.0009L35.9166 24.8591H32.3445L31.259 23.7735Z" fill="#B3897D"/>
<path d="M20.7761 28.4458L38.8044 23.3047V45.2714C38.8044 46.4471 37.8429 47.4085 36.6673 47.4085H22.9133C21.7376 47.4085 20.7762 46.447 20.7762 45.2714L20.7761 28.4458Z" fill="#8C95C9"/>
<path d="M25.0989 27.4719C25.0989 27.3862 25.0888 27.3017 25.0696 27.2217L22.9629 27.8225C23.1996 29.0285 24.6188 29.6406 25.0989 30.4747C25.623 29.5628 27.2677 28.9169 27.2677 27.4719C27.2677 27.1642 27.1392 26.8868 26.934 26.6897L25.1316 27.2036C25.1103 27.2893 25.0989 27.3795 25.0989 27.4719Z" fill="#9EA7DB"/>
<path d="M29.7903 30.2256C29.7903 29.6271 29.3045 29.1412 28.706 29.1412C28.1062 29.1412 27.6216 29.6271 27.6216 30.2256C27.6216 31.6706 29.2661 32.3165 29.7903 33.2284C30.3145 32.3165 31.9591 31.6706 31.9591 30.2256C31.9591 29.6271 31.4744 29.1412 30.8747 29.1412C30.2762 29.1412 29.7903 29.6271 29.7903 30.2256Z" fill="#9EA7DB"/>
<path d="M38.8044 23.3047L35.309 33.4055L20.7761 28.4458L38.8044 23.3047Z" fill="#7982AF"/>
<path d="M38.8046 23.3047L34.5077 31.93L20.7762 28.4458L38.8046 23.3047Z" fill="#EAEAED"/>
<path d="M20.7762 28.4458L17.6945 34.7637L20.7762 34.1889V28.4458Z" fill="#EAEAED"/>
<path d="M25.0989 33.987C25.0989 33.3885 24.6131 32.9026 24.0135 32.9026C23.4149 32.9026 22.9291 33.3885 22.9291 33.987C22.9291 35.432 24.5736 36.0779 25.0989 36.9888C25.623 36.078 27.2677 35.4321 27.2677 33.987C27.2677 33.3885 26.7818 32.9026 26.1833 32.9026C25.5837 32.9027 25.0989 33.3885 25.0989 33.987Z" fill="#9EA7DB"/>
<path d="M36.6674 46.2735H22.9134C21.7377 46.2735 20.7762 45.3119 20.7762 44.1374V45.2714C20.7762 46.4471 21.7378 47.4085 22.9134 47.4085H36.6674C37.843 47.4085 38.8045 46.447 38.8045 45.2714V44.1374C38.8045 45.3119 37.8429 46.2735 36.6674 46.2735Z" fill="#7D85B5"/>
<path d="M25.0989 41.0894C25.0989 40.4897 24.6131 40.0051 24.0135 40.0051C23.4149 40.0051 22.9291 40.4897 22.9291 41.0894C22.9291 42.5345 24.5736 43.1804 25.0989 44.0912C25.623 43.1805 27.2677 42.5346 27.2677 41.0894C27.2677 40.4897 26.7818 40.0051 26.1833 40.0051C25.5837 40.0052 25.0989 40.4898 25.0989 41.0894Z" fill="#9EA7DB"/>
<path d="M29.7903 37.4441C29.7903 36.8444 29.3045 36.3598 28.706 36.3598C28.1062 36.3598 27.6216 36.8444 27.6216 37.4441C27.6216 38.8892 29.2661 39.5351 29.7903 40.4459C30.3145 39.5352 31.9591 38.8893 31.9591 37.4441C31.9591 36.8444 31.4744 36.3598 30.8747 36.3598C30.2762 36.3598 29.7903 36.8445 29.7903 37.4441Z" fill="#9EA7DB"/>
<path d="M35.0634 33.987C35.0634 33.3885 34.5776 32.9026 33.979 32.9026C33.3793 32.9026 32.8947 33.3885 32.8947 33.987C32.8947 35.432 34.5392 36.0779 35.0634 36.9888C35.5875 36.078 37.2322 35.4321 37.2322 33.987C37.2322 33.3885 36.7475 32.9026 36.1478 32.9026C35.5491 32.9027 35.0634 33.3885 35.0634 33.987Z" fill="#9EA7DB"/>
<path d="M35.0634 41.0894C35.0634 40.4897 34.5776 40.0051 33.979 40.0051C33.3793 40.0051 32.8947 40.4897 32.8947 41.0894C32.8947 42.5345 34.5392 43.1804 35.0634 44.0912C35.5875 43.1805 37.2322 42.5346 37.2322 41.0894C37.2322 40.4897 36.7475 40.0051 36.1478 40.0051C35.5491 40.0052 35.0634 40.4898 35.0634 41.0894Z" fill="#9EA7DB"/>
<path d="M29.7903 45.1136C29.7903 44.5139 29.3045 44.0292 28.706 44.0292C28.1062 44.0292 27.6216 44.5139 27.6216 45.1136C27.6216 45.5679 27.7839 45.9443 28.024 46.2734H31.5566C31.7968 45.9443 31.9591 45.5678 31.9591 45.1136C31.9591 44.5139 31.4744 44.0292 30.8747 44.0292C30.2762 44.0292 29.7903 44.5139 29.7903 45.1136Z" fill="#9EA7DB"/>
</svg>
