<svg width="59" height="61" viewBox="0 0 59 61" fill="none" xmlns="http://www.w3.org/2000/svg">
<rect width="59" height="61" rx="10" fill="#FFCC29"/>
<g clip-path="url(#clip0_240_705)">
<path d="M33.2278 19.8187L34.8759 16L36.751 18.6412L39.8802 17.264L40.0821 20.9188L37.4929 23.508L33.2278 19.8187Z" fill="#9AC676"/>
<path d="M41.1827 27.7732L45.0001 26.1251L42.3593 24.2504L43.737 21.1207L40.0822 20.9188L37.4929 23.508L41.1827 27.7732Z" fill="#85B932"/>
<path d="M37.5637 23.4373L16.2099 44.791C15.3899 43.9717 14.7049 43.3274 15.13 40.4896C15.3769 38.837 17.0597 34.4828 19.6013 30.0816C19.8274 29.6849 20.0602 29.2901 20.3026 28.8996C21.4202 27.0728 22.6814 25.277 24.0376 23.7095C24.3837 23.3047 24.7392 22.9134 25.1019 22.5458C25.1753 22.4644 25.2496 22.3899 25.3271 22.3125C30.8749 16.7642 33.6675 19.5411 34.6865 20.5601L37.5637 23.4373Z" fill="#F19259"/>
<path d="M38.6883 35.6738C37.9464 36.4148 37.128 37.1299 36.2585 37.8194C35.8484 38.1453 35.423 38.4663 34.9896 38.7788C31.8335 41.0632 28.2293 42.9611 25.328 44.2184C24.7746 44.462 24.2471 44.676 23.7538 44.8721C22.3356 45.4201 21.1918 45.7688 20.5106 45.87C17.6756 46.2931 17.0179 45.5992 16.21 44.791L37.5636 23.4373L40.5433 26.417C41.629 27.5135 44.0584 30.3037 38.6883 35.6738Z" fill="#F08234"/>
<g opacity="0.47">
<path d="M26.9937 25.5542C26.6874 25.8604 26.2205 25.8922 25.9527 25.6254L24.0377 23.7095C24.3838 23.3048 24.7393 22.9135 25.102 22.5459L27.0675 24.5114C27.3344 24.7782 27.3021 25.2457 26.9937 25.5542Z" fill="#E9AC34"/>
<path d="M36.2586 37.8194C35.8485 38.1453 35.4231 38.4663 34.9897 38.7788L32.726 36.5155C32.456 36.2465 32.4882 35.779 32.7945 35.4723C32.9489 35.3179 33.1419 35.2332 33.3304 35.2198C33.5225 35.2077 33.7056 35.2668 33.8404 35.4016L36.2586 37.8194Z" fill="#E9AC34"/>
<path d="M22.7782 32.3167C22.5183 32.5764 22.1232 32.6037 21.8962 32.3767L19.6013 30.0816C19.8274 29.6849 20.0602 29.2901 20.3027 28.8996L22.838 31.4351C23.0647 31.6617 23.0381 32.0566 22.7782 32.3167Z" fill="#E9AC34"/>
<path d="M24.5204 42.551C24.236 42.8357 23.8049 42.8644 23.5568 42.6164L20.4128 39.4724C20.1648 39.2248 20.1943 38.7931 20.4786 38.5088C20.7625 38.2249 21.1945 38.1954 21.4421 38.4434L24.5861 41.5869C24.8337 41.8351 24.8047 42.2671 24.5204 42.551Z" fill="#E9AC34"/>
<path d="M30.4003 33.6765C30.116 33.9613 29.6844 33.9904 29.4364 33.7419L26.1434 30.4488C25.8954 30.2012 25.924 29.7696 26.2088 29.4853C26.4931 29.201 26.9242 29.1715 27.1723 29.4195L30.4658 32.713C30.7138 32.961 30.6847 33.3926 30.4003 33.6765Z" fill="#E9AC34"/>
<path d="M38.2631 30.9041C37.9797 31.188 37.5481 31.2176 37.2996 30.9691L35.3528 29.0227C35.1048 28.7747 35.1348 28.3436 35.4187 28.0592C35.7035 27.7745 36.1351 27.7449 36.3827 27.993L38.3289 29.9401C38.5769 30.1878 38.5478 30.6194 38.2631 30.9041Z" fill="#E9AC34"/>
</g>
<path d="M33.2278 19.8187L34.8759 16L36.751 18.6412L39.8802 17.264L40.0821 20.9188L37.4929 23.508L33.2278 19.8187Z" fill="#9AC676"/>
<path d="M41.1827 27.7732L45.0001 26.1251L42.3593 24.2504L43.737 21.1207L40.0822 20.9188L37.4929 23.508L41.1827 27.7732Z" fill="#85B932"/>
<path d="M37.5637 23.4373L16.2099 44.791C15.3899 43.9717 14.7049 43.3274 15.13 40.4896C15.3769 38.837 17.0597 34.4828 19.6013 30.0816C19.8274 29.6849 20.0602 29.2901 20.3026 28.8996C21.4202 27.0728 22.6814 25.277 24.0376 23.7095C24.3837 23.3047 24.7392 22.9134 25.1019 22.5458C25.1753 22.4644 25.2496 22.3899 25.3271 22.3125C30.8749 16.7642 33.6675 19.5411 34.6865 20.5601L37.5637 23.4373Z" fill="#F19259"/>
<path d="M38.6883 35.6738C37.9464 36.4148 37.128 37.1299 36.2585 37.8194C35.8484 38.1453 35.423 38.4663 34.9896 38.7788C31.8335 41.0632 28.2293 42.9611 25.328 44.2184C24.7746 44.462 24.2471 44.676 23.7538 44.8721C22.3356 45.4201 21.1918 45.7688 20.5106 45.87C17.6756 46.2931 17.0179 45.5992 16.21 44.791L37.5636 23.4373L40.5433 26.417C41.629 27.5135 44.0584 30.3037 38.6883 35.6738Z" fill="#F08234"/>
<g opacity="0.47">
<path d="M26.9937 25.5542C26.6874 25.8604 26.2205 25.8922 25.9527 25.6254L24.0377 23.7095C24.3838 23.3048 24.7393 22.9135 25.102 22.5459L27.0675 24.5114C27.3344 24.7782 27.3021 25.2457 26.9937 25.5542Z" fill="#E9AC34"/>
<path d="M36.2586 37.8194C35.8485 38.1453 35.4231 38.4663 34.9897 38.7788L32.726 36.5155C32.456 36.2465 32.4882 35.779 32.7945 35.4723C32.9489 35.3179 33.1419 35.2332 33.3304 35.2198C33.5225 35.2077 33.7056 35.2668 33.8404 35.4016L36.2586 37.8194Z" fill="#E9AC34"/>
<path d="M22.7782 32.3167C22.5183 32.5764 22.1232 32.6037 21.8962 32.3767L19.6013 30.0816C19.8274 29.6849 20.0602 29.2901 20.3027 28.8996L22.838 31.4351C23.0647 31.6617 23.0381 32.0566 22.7782 32.3167Z" fill="#E9AC34"/>
<path d="M24.5204 42.551C24.236 42.8357 23.8049 42.8644 23.5568 42.6164L20.4128 39.4724C20.1648 39.2248 20.1943 38.7931 20.4786 38.5088C20.7625 38.2249 21.1945 38.1954 21.4421 38.4434L24.5861 41.5869C24.8337 41.8351 24.8047 42.2671 24.5204 42.551Z" fill="#E9AC34"/>
<path d="M30.4003 33.6765C30.116 33.9613 29.6844 33.9904 29.4364 33.7419L26.1434 30.4488C25.8954 30.2012 25.924 29.7696 26.2088 29.4853C26.4931 29.201 26.9242 29.1715 27.1723 29.4195L30.4658 32.713C30.7138 32.961 30.6847 33.3926 30.4003 33.6765Z" fill="#E9AC34"/>
<path d="M38.2631 30.9041C37.9797 31.188 37.5481 31.2176 37.2996 30.9691L35.3528 29.0227C35.1048 28.7747 35.1348 28.3436 35.4187 28.0592C35.7035 27.7745 36.1351 27.7449 36.3827 27.993L38.3289 29.9401C38.5769 30.1878 38.5478 30.6194 38.2631 30.9041Z" fill="#E9AC34"/>
</g>
</g>
<defs>
<clipPath id="clip0_240_705">
<rect width="30" height="30" fill="white" transform="translate(15 16)"/>
</clipPath>
</defs>
</svg>
