<svg width="98" height="91" viewBox="0 0 98 91" fill="none" xmlns="http://www.w3.org/2000/svg">
<rect width="98" height="91" rx="10" fill="#FFCC29"/>
<g clip-path="url(#clip0_365_1014)">
<path d="M31.8278 38.1052C28.6285 34.9058 28.2585 30.0973 31.0011 27.3548L31.8278 26.528C34.5704 23.7855 39.3789 24.1554 42.5782 27.3548C45.5469 30.3235 45.5469 35.1365 42.5782 38.1052C39.6096 41.0739 34.7965 41.0739 31.8278 38.1052Z" fill="#F75B57"/>
<path d="M35.7544 30.1154C34.7739 30.1154 33.7943 29.7427 33.0471 28.9965C32.6934 28.6428 32.6934 28.0712 33.0471 27.7175C33.3999 27.3638 33.9725 27.3638 34.3261 27.7175C35.1131 28.5035 36.3948 28.5035 37.1817 27.7175C37.5354 27.3638 38.108 27.3638 38.4617 27.7175C38.8144 28.0712 38.8144 28.6437 38.4617 28.9965C37.7145 29.7427 36.734 30.1154 35.7544 30.1154Z" fill="#F98282"/>
<path d="M30.196 50.7379L34.2665 60.7647C36.9529 65.7035 39.1148 66.9997 44.3638 69.0123C47.7947 70.3283 54.2938 70.3283 57.6984 69.0123C62.8923 67.0051 65.0894 65.7414 67.7496 60.8506L71.8662 50.7379C69.5632 48.4576 65.8356 51.0011 63.5318 53.2815C61.2406 51.0011 57.5311 52.6248 55.2399 54.9051C52.9487 52.6248 49.2392 52.6248 46.948 54.9051C44.6333 52.6248 40.8867 51.0011 38.572 53.2815C36.2573 51.0011 32.5108 48.4585 30.196 50.7379Z" fill="#A46F3E"/>
<path d="M41.8637 64.4036C41.5236 64.4036 41.1979 64.211 41.0442 63.8826L38.544 58.5423C38.3324 58.09 38.5269 57.5509 38.98 57.3401C39.4332 57.1294 39.9714 57.322 40.1831 57.7752L42.6832 63.1156C42.8949 63.5679 42.7004 64.107 42.2472 64.3177C42.1224 64.3765 41.9921 64.4036 41.8637 64.4036Z" fill="#C18B5F"/>
<path d="M60.1977 64.4036C60.0693 64.4036 59.9381 64.3765 59.8151 64.3177C59.3628 64.1069 59.1674 63.5678 59.3791 63.1156L61.8792 57.7752C62.09 57.322 62.6309 57.1248 63.0823 57.3401C63.5345 57.5509 63.7299 58.09 63.5183 58.5422L61.0181 63.8826C60.8634 64.211 60.5378 64.4036 60.1977 64.4036Z" fill="#C18B5F"/>
<path d="M54.3652 66.2996C54.3191 66.2996 54.2712 66.2959 54.2241 66.2887C53.7312 66.2118 53.3929 65.7487 53.4698 65.2548L54.3028 59.9144C54.3797 59.4206 54.8419 59.0859 55.3367 59.1601C55.8297 59.2369 56.168 59.7001 56.0911 60.1939L55.258 65.5343C55.1884 65.9802 54.803 66.2996 54.3652 66.2996Z" fill="#C18B5F"/>
<path d="M47.6961 66.2996C47.2583 66.2996 46.873 65.9802 46.8033 65.5343L45.9702 60.1939C45.8934 59.7001 46.2317 59.2369 46.7246 59.1601C47.2185 59.0859 47.6807 59.4206 47.7585 59.9144L48.5916 65.2548C48.6685 65.7487 48.3302 66.2118 47.8372 66.2887C47.7893 66.2959 47.7422 66.2996 47.6961 66.2996Z" fill="#C18B5F"/>
<path d="M69.0658 42.8468C69.1979 42.3972 69.2684 41.9368 69.2684 41.4682C69.2684 38.95 67.2821 36.667 64.061 34.9909C64.061 34.9909 64.146 20.5084 52.3364 21.6788C52.3364 21.6788 56.1445 27.845 50.8087 27.9011C48.2081 27.9283 45.7876 28.2738 43.7289 28.8491C45.4674 31.7671 45.0893 35.5951 42.5774 38.107C39.9723 40.7121 35.9462 41.0295 32.9929 39.0613C32.5841 39.8301 32.348 40.6352 32.348 41.4691C32.348 41.9377 32.4186 42.3981 32.5506 42.8477C30.4087 44.4324 29.1622 46.3129 29.1622 48.3319C29.1622 49.7131 29.7466 51.0301 30.7994 52.2313L30.1961 50.7379C32.5108 48.4576 36.2574 51.0011 38.5721 53.2815C40.8868 51.0011 44.6334 52.6248 46.9481 54.9051C49.2393 52.6248 52.9488 52.6248 55.24 54.9051C57.5312 52.6248 61.2407 51.0011 63.5319 53.2815C65.8303 51.0066 69.5461 48.4712 71.85 50.7253C72.2416 49.9564 72.4542 49.1559 72.4542 48.33C72.4542 46.3111 71.2077 44.4315 69.0658 42.8468Z" fill="#FFF5BB"/>
<path d="M35.4948 27.4045C35.0308 27.4045 34.6364 27.049 34.5948 26.5796C34.5903 26.5317 34.3615 24.3951 32.603 23.023C31.1965 21.9258 29.1721 21.573 26.587 21.9665C26.0985 22.0433 25.6318 21.7041 25.5558 21.2094C25.4798 20.7155 25.819 20.2542 26.3129 20.1782C29.4245 19.6997 31.9246 20.1845 33.74 21.6164C36.1244 23.4951 36.3858 26.3055 36.3967 26.4231C36.4383 26.9215 36.0692 27.3584 35.5708 27.4C35.5455 27.4036 35.5202 27.4045 35.4948 27.4045Z" fill="#6A3311"/>
<path d="M51.033 38.2228C50.5336 38.2228 50.1284 37.8184 50.1284 37.3182C50.1284 36.818 50.5336 36.4137 51.033 36.4137C54.7705 36.4137 58.3163 35.9406 61.2859 35.0433C61.7626 34.8995 62.2691 35.17 62.4138 35.6476C62.5576 36.1261 62.2872 36.6308 61.8096 36.7746C58.6718 37.7217 54.9451 38.2228 51.033 38.2228Z" fill="#F9DA49"/>
<path d="M37.616 46.3256C37.5129 46.3256 37.4088 46.3075 37.3066 46.2704C36.3017 45.905 35.3338 45.479 34.4293 45.0059C33.987 44.7743 33.8151 44.2289 34.0467 43.7848C34.2782 43.3424 34.8246 43.1697 35.2678 43.403C36.1018 43.8381 36.9964 44.2316 37.9262 44.5708C38.3957 44.7418 38.6372 45.261 38.4662 45.7304C38.3324 46.0977 37.985 46.3256 37.616 46.3256Z" fill="#F9DA49"/>
<path d="M50.8068 48.4485C48.9597 48.4485 47.1226 48.3373 45.3072 48.1139C44.8115 48.0533 44.4587 47.6028 44.5193 47.1062C44.5809 46.6105 45.0395 46.2578 45.5279 46.3193C49.1569 46.7652 52.8763 46.7462 56.5831 46.2641C57.0806 46.1917 57.532 46.5481 57.5971 47.0438C57.6622 47.5395 57.3122 47.9936 56.8165 48.0569C54.8112 48.3183 52.8031 48.4485 50.8068 48.4485Z" fill="#F9DA49"/>
<path d="M61.7282 47.0736C61.3302 47.0736 60.9657 46.8095 60.8562 46.407C60.725 45.9258 61.0091 45.4283 61.4912 45.2962C63.3636 44.7861 65.0315 44.1466 66.448 43.3985C66.8895 43.167 67.4376 43.3352 67.6701 43.7766C67.9034 44.218 67.7343 44.7653 67.2929 44.9995C65.7597 45.8091 63.9678 46.4956 61.9679 47.042C61.8874 47.0637 61.8069 47.0736 61.7282 47.0736Z" fill="#F9DA49"/>
</g>
<defs>
<clipPath id="clip0_365_1014">
<rect width="50" height="50" fill="white" transform="translate(24 20)"/>
</clipPath>
</defs>
</svg>
