<svg width="98" height="91" viewBox="0 0 98 91" fill="none" xmlns="http://www.w3.org/2000/svg">
<rect width="98" height="91" rx="10" fill="#FFCC29"/>
<path d="M49 68.6111C28.225 68.6111 25.3889 49.1667 25.3889 43.6111H72.6111C72.6111 46.3889 69.8917 68.6111 49 68.6111Z" fill="#CCD6DD"/>
<path d="M72.6111 43.6889C72.6111 50.9333 62.0403 56.8056 49 56.8056C35.9597 56.8056 25.3889 50.9319 25.3889 43.6889C25.3889 36.4444 35.9597 31.9611 49 31.9611C62.0403 31.9597 72.6111 36.4444 72.6111 43.6889Z" fill="#66757F"/>
<path d="M27.7611 46.2153C26.6388 44.6028 24.5208 41.3542 26.7777 36.4931C27.7611 33.9472 29.8055 32.2889 30.0763 33.0792C30.7124 34.9306 31.9861 36.5514 33.8958 36.3778C33.8708 37.0347 32.9666 30.3931 36.1527 28.6222C37.7152 27.7542 39.393 29.1431 41.3027 32.2097C44.3611 37.1222 52.1513 34.8264 54.3374 33.5403C56.5513 32.2375 58.4902 31.3847 57.9111 27.8986C57.7833 27.1333 58.943 26.4694 60.1263 27.1028C62.1138 28.1667 64.9847 30.8125 65.4916 33.7153C66.9097 34.0917 67.9722 33.4889 68.7902 31.8347C69.1958 31.0153 70.5847 30.8222 71.1791 31.8917C72.2263 33.775 73.9458 39.5681 71.5111 44.5375C68.7333 50.2083 64.5083 53.2181 55.018 54.4333C45.5277 55.6486 33.3166 54.2014 27.7611 46.2153Z" fill="#77B255"/>
<path d="M50.968 34.0917C50.968 37.0167 48.4541 39.3861 45.3541 39.3861C42.2541 39.3861 39.7402 37.0153 39.7402 34.0917C39.7402 31.1681 42.2541 28.7972 45.3541 28.7972C48.4541 28.7958 50.968 31.1681 50.968 34.0917Z" fill="#5C913B"/>
<path d="M49.5792 34.0917C49.5792 36.2931 47.6875 38.0764 45.3542 38.0764C43.0208 38.0764 41.1292 36.2917 41.1292 34.0917C41.1292 31.8903 43.0208 30.1056 45.3542 30.1056C47.6875 30.1069 49.5792 31.8917 49.5792 34.0917Z" fill="#C6E5B3"/>
<path d="M35.343 42.9167C37.1011 42.9167 38.5263 41.673 38.5263 40.1389C38.5263 38.6048 37.1011 37.3611 35.343 37.3611C33.5849 37.3611 32.1597 38.6048 32.1597 40.1389C32.1597 41.673 33.5849 42.9167 35.343 42.9167Z" fill="#292F33"/>
<path d="M48.3388 41.0861C50.0986 44.4028 45.4166 42.4069 41.9305 44.2583C38.443 46.1097 37.4736 51.1042 35.7125 47.7875C33.9513 44.4708 35.3513 40.2819 38.8375 38.4306C42.325 36.5806 46.5791 37.7694 48.3388 41.0861Z" fill="#DD2E44"/>
<path d="M57.5653 40.1389C59.3234 40.1389 60.7486 38.8952 60.7486 37.3611C60.7486 35.827 59.3234 34.5833 57.5653 34.5833C55.8072 34.5833 54.382 35.827 54.382 37.3611C54.382 38.8952 55.8072 40.1389 57.5653 40.1389Z" fill="#292F33"/>
<path d="M64.4403 47.9569C62.2681 50.0125 62.8042 45.9958 60.6431 43.7125C58.4792 41.4292 54.4403 41.7472 56.6112 39.6903C58.782 37.6333 62.2973 37.8167 64.4584 40.0986C66.6209 42.3806 66.6126 45.9 64.4403 47.9569Z" fill="#9266CC"/>
<path d="M63.0514 49.3458C60.8792 51.4014 61.4153 47.3847 59.2542 45.1C57.0903 42.8181 53.0514 43.1347 55.2222 41.0778C57.3931 39.0208 60.9084 39.2042 63.0695 41.4861C65.232 43.7694 65.2236 47.2889 63.0514 49.3458Z" fill="#E1E8ED"/>
<path d="M57.3514 47.6778C58.4361 50.5417 54.8542 48.4486 51.8431 49.5903C48.8347 50.7306 47.5375 54.6708 46.4528 51.8083C45.3681 48.9472 46.9292 45.7 49.9375 44.5597C52.9472 43.4194 56.2653 44.8167 57.3514 47.6778Z" fill="#DD2E44"/>
<path d="M36.4417 46.5056C36.2097 44.3639 40.3764 34.8139 47.7847 43.1486C46.0486 43.4375 41.8236 43.4375 39.9139 46.1C38.0042 48.7625 36.2681 46.3889 36.4417 46.5056Z" fill="#EA596E"/>
<path d="M30.8292 47.3736C29.8181 46.025 33.2597 42.9167 35.8639 45.5778C36.9639 44.2472 42.4028 41.5861 44.4292 47.3736C45.3556 46.3319 52.9361 46.1 53.0514 52.5236C53.1083 53.3917 44.3083 53.2264 39.7986 52.1764C37.3097 51.5972 32.7389 49.9194 30.8292 47.3736ZM60.1111 51.1917C58.4903 51.6292 61.2125 44.0736 66.3042 45.3472C66.4778 43.9583 67.5764 39.3861 70.7597 40.1972C70.875 41.5278 70.8167 48.2972 60.1111 51.1917Z" fill="#A6D388"/>
</svg>
