<svg width="98" height="91" viewBox="0 0 98 91" fill="none" xmlns="http://www.w3.org/2000/svg">
<rect width="98" height="91" rx="10" fill="#FFCC29"/>
<g clip-path="url(#clip0_365_980)">
<path d="M65.7262 39.2449L59.2487 37.1172V57.8823H68.4149C68.4149 57.8823 68.4149 50.1928 68.4149 49.1057C68.4149 45.5056 67.4339 42.1352 65.7262 39.2449Z" fill="#975D50"/>
<path d="M61.2178 37.1172L36.5292 37.117L32.2739 39.2446C30.5663 42.135 29.5851 45.5055 29.5851 49.1058V55.4888H64.5319C64.5319 55.4888 64.5319 51.3421 64.5319 49.1058C64.5319 44.5812 63.2937 40.4183 61.2178 37.1172Z" fill="#B1786B"/>
<path d="M49 29.6909C41.8776 29.6909 35.6523 33.5269 32.2739 39.2447C32.4419 39.2243 32.6203 39.2122 32.8141 39.2122C35.5117 39.2122 35.5117 41.3399 38.2092 41.3399C40.9067 41.3399 40.9067 39.2122 43.6041 39.2122C46.3017 39.2122 46.3017 41.3399 48.9992 41.3399C51.6967 41.3399 51.6967 39.2122 54.3941 39.2122C57.0917 39.2122 57.0917 41.3399 59.7892 41.3399C62.4867 41.3399 62.4867 39.2122 65.1841 39.2122C65.3787 39.2122 65.5578 39.2244 65.7263 39.245C62.3479 33.5269 56.1224 29.6909 49 29.6909Z" fill="#975D50"/>
<path d="M67.3511 56.2867L61.8546 63.2016H65.0461C66.8014 63.2016 68.6917 61.8391 69.2468 60.1739L70.5426 56.2867H67.3511Z" fill="#FDCE6E"/>
<path d="M27.4574 56.2867L28.7531 60.1739C29.3082 61.8391 31.1986 63.2016 32.9539 63.2016H61.8546C63.61 63.2016 65.5003 61.8391 66.0554 60.1739L67.3511 56.2867H27.4574Z" fill="#FDFA7B"/>
<path d="M71.6064 54.6909H26.3936C25.5123 54.6909 24.7979 55.4054 24.7979 56.2867C24.7979 57.1679 25.5123 57.8824 26.3936 57.8824H71.6064C72.4876 57.8824 73.2021 57.1679 73.2021 56.2867C73.2021 55.4054 72.4876 54.6909 71.6064 54.6909Z" fill="#FEFDCA"/>
<path d="M73.2021 31.8186C73.2021 30.6435 72.2495 29.6909 71.0744 29.6909C70.9303 29.6909 70.5063 29.6909 70.0106 29.6909C70.0106 29.1952 70.0106 28.7713 70.0106 28.6271C70.0106 27.452 69.058 26.4994 67.8829 26.4994C66.7078 26.4994 65.7553 27.4521 65.7553 28.6271V30.9373L63.1008 33.5918L63.1007 36.6008L66.1098 36.601L68.7643 33.9461H71.0745C72.2494 33.9463 73.2021 32.9937 73.2021 31.8186Z" fill="white"/>
<path d="M64.8431 44.0635L66.1098 36.6011L63.1009 33.5918L55.6381 34.8585C51.8702 35.4963 49 38.7734 49 42.7228C49 47.1293 52.5722 50.7016 56.9787 50.7016C60.9281 50.7016 64.2052 47.8314 64.8431 44.0635Z" fill="#CB9385"/>
<path d="M50.0529 23.5798C50.0579 25.2461 50.5361 26.1167 50.958 26.8845C51.1032 27.1489 51.3763 27.2984 51.658 27.2984C51.7879 27.2984 51.9196 27.2666 52.0414 27.1997C52.4276 26.9875 52.5686 26.5024 52.3565 26.1161C51.9786 25.4284 51.6524 24.8343 51.6486 23.5749C51.6449 22.3156 51.9678 21.7195 52.3416 21.0293C52.7591 20.2588 53.232 19.3854 53.2271 17.7191C53.2221 16.0528 52.7439 15.1823 52.3218 14.4142C52.1097 14.0282 51.6246 13.8869 51.2383 14.0992C50.852 14.3114 50.711 14.7965 50.9232 15.1827C51.3012 15.8706 51.6276 16.4648 51.6313 17.724C51.635 18.9833 51.3121 19.5793 50.9383 20.2695C50.5211 21.0401 50.0481 21.9135 50.0529 23.5798Z" fill="#FFCFB2"/>
<path d="M44.7337 23.5955C44.7387 25.2618 45.2169 26.1323 45.6388 26.9003C45.7839 27.1647 46.0571 27.3142 46.3388 27.3142C46.4687 27.3142 46.6004 27.2825 46.7222 27.2155C47.1085 27.0034 47.2495 26.5183 47.0374 26.1321C46.6595 25.4441 46.3333 24.8501 46.3295 23.5906C46.3258 22.3314 46.6487 21.7353 47.0225 21.0451C47.44 20.2745 47.9129 19.4011 47.908 17.7349C47.903 16.0686 47.4247 15.1981 47.0027 14.43C46.7906 14.0438 46.3055 13.9025 45.9192 14.115C45.5329 14.3271 45.3919 14.8122 45.6041 15.1985C45.9821 15.8864 46.3085 16.4805 46.3122 17.7398C46.3159 18.999 45.993 19.5951 45.6192 20.2853C45.2019 21.0558 44.7289 21.9292 44.7337 23.5955Z" fill="#FFCFB2"/>
<path d="M34.1063 48.3079C34.547 48.3079 34.9042 47.9507 34.9042 47.5101C34.9042 47.0694 34.547 46.7122 34.1063 46.7122C33.6657 46.7122 33.3085 47.0694 33.3085 47.5101C33.3085 47.9507 33.6657 48.3079 34.1063 48.3079Z" fill="black"/>
<path d="M37.2979 51.4994C37.7385 51.4994 38.0957 51.1422 38.0957 50.7016C38.0957 50.2609 37.7385 49.9037 37.2979 49.9037C36.8572 49.9037 36.5 50.2609 36.5 50.7016C36.5 51.1422 36.8572 51.4994 37.2979 51.4994Z" fill="black"/>
<path d="M71.6064 53.8931H69.2128V49.1058C69.2128 45.5515 68.2776 42.0678 66.5104 39.0084L66.8538 36.9854L69.0948 34.7441H71.0745C72.6877 34.7441 74 33.4317 74 31.8186C74 30.2055 72.6877 28.8931 71.0745 28.8931H70.8085V28.6271C70.8085 27.014 69.4962 25.7016 67.883 25.7016C66.2698 25.7016 64.9574 27.014 64.9574 28.6271V30.6068L62.7166 32.8476L61.3239 33.084C57.767 30.3411 53.5141 28.893 49.0001 28.893C41.6374 28.893 35.1827 32.8505 31.6485 38.7495C31.6048 38.8049 31.5688 38.866 31.541 38.9312C29.7915 41.9216 28.7872 45.3984 28.7872 49.1058V51.4994C28.7872 51.9402 29.1445 52.2973 29.5851 52.2973C30.0257 52.2973 30.383 51.9402 30.383 51.4994V49.1058C30.383 45.805 31.2476 42.7027 32.7605 40.0117C32.7785 40.0115 32.796 40.0101 32.8141 40.0101C33.8862 40.0101 34.3854 40.4039 35.0176 40.9025C35.7153 41.4528 36.5836 42.1377 38.2091 42.1377C39.8347 42.1377 40.703 41.4528 41.4007 40.9025C42.0328 40.4039 42.5321 40.0101 43.604 40.0101C44.6761 40.0101 45.1753 40.4039 45.8074 40.9025C46.3853 41.3584 47.0818 41.9053 48.2271 42.0801C48.2118 42.2926 48.2019 42.5067 48.2019 42.7228C48.2019 47.5622 52.139 51.4994 56.9785 51.4994C61.2749 51.4994 64.9132 48.4283 65.6295 44.197L66.0615 41.652C67.0824 43.99 67.6168 46.5275 67.6168 49.1058V53.8931H26.3936C25.0737 53.8931 24 54.9669 24 56.2867C24 57.6065 25.0737 58.6803 26.3936 58.6803H27.4143L27.9962 60.4261C28.664 62.4299 30.8418 63.9994 32.9538 63.9994H65.0461C67.1582 63.9994 69.3358 62.4299 70.0037 60.4261L70.5856 58.6803H71.6063C72.9262 58.6803 73.9999 57.6065 73.9999 56.2867C73.9999 54.9669 72.9263 53.8931 71.6064 53.8931ZM46.7957 39.6495C46.098 39.0992 45.2297 38.4143 43.6041 38.4143C41.9786 38.4143 41.1103 39.0992 40.4126 39.6495C39.7805 40.1482 39.2812 40.542 38.2093 40.542C37.1372 40.542 36.638 40.1482 36.0059 39.6495C35.4496 39.2108 34.7835 38.6876 33.7133 38.4931C37.0795 33.6591 42.6761 30.4888 49.0001 30.4888C52.6407 30.4888 56.0965 31.5117 59.099 33.4618L55.505 34.0719C52.026 34.6608 49.333 37.2255 48.4846 40.5066C47.7486 40.3998 47.3169 40.0606 46.7957 39.6495ZM56.9787 49.9037C53.0191 49.9037 49.7979 46.6824 49.7979 42.7228C49.7979 42.3038 49.8346 41.8928 49.9033 41.4922C49.9064 41.4769 49.9085 41.4613 49.9106 41.4456C50.4347 38.5074 52.7385 36.1586 55.7715 35.6452L62.8279 34.4474L63.2886 34.9084C63.4445 35.0643 63.6487 35.1422 63.853 35.1422C64.0571 35.1422 64.2613 35.0644 64.417 34.9087C64.7286 34.5971 64.7288 34.092 64.4172 33.7804L64.2289 33.592L66.3194 31.5016C66.469 31.3519 66.5531 31.149 66.5531 30.9373V28.6271C66.5531 27.8938 67.1496 27.2973 67.8829 27.2973C68.6162 27.2973 69.2127 27.8938 69.2127 28.6271V29.691C69.2127 30.1317 69.5699 30.4888 70.0105 30.4888H71.0744C71.8077 30.4888 72.4041 31.0853 72.4041 31.8186C72.4041 32.5519 71.8077 33.1484 71.0744 33.1484H68.7641C68.5525 33.1484 68.3496 33.2324 68.1999 33.3821L65.5453 36.037C65.4283 36.154 65.3506 36.3045 65.323 36.4676L64.0563 43.9303C63.4704 47.3915 60.4938 49.9037 56.9787 49.9037ZM71.6064 57.0845H70.0296C70.0261 57.0844 70.0227 57.0845 70.0191 57.0845H34.3723C33.9317 57.0845 33.5745 57.4417 33.5745 57.8824C33.5745 58.3232 33.9317 58.6803 34.3723 58.6803H68.9036L68.4899 59.9215C68.0414 61.2669 66.4644 62.4037 65.0461 62.4037H32.9539C31.5356 62.4037 29.9586 61.2669 29.5101 59.9215L29.0964 58.6803H31.1809C31.6215 58.6803 31.9787 58.3232 31.9787 57.8824C31.9787 57.4417 31.6215 57.0845 31.1809 57.0845H26.3936C25.9536 57.0845 25.5957 56.7267 25.5957 56.2867C25.5957 55.8467 25.9536 55.4888 26.3936 55.4888H71.6064C72.0464 55.4888 72.4043 55.8467 72.4043 56.2867C72.4043 56.7267 72.0464 57.0845 71.6064 57.0845Z" fill="black"/>
<path d="M57.0319 46.659C57.4725 46.659 57.8298 46.3018 57.8298 45.8611C57.8298 45.4205 57.4725 45.0633 57.0319 45.0633C56.5912 45.0633 56.234 45.4205 56.234 45.8611C56.234 46.3018 56.5912 46.659 57.0319 46.659Z" fill="black"/>
</g>
<defs>
<clipPath id="clip0_365_980">
<rect width="50" height="50" fill="white" transform="translate(24 20)"/>
</clipPath>
</defs>
</svg>
