<svg width="98" height="91" viewBox="0 0 98 91" fill="none" xmlns="http://www.w3.org/2000/svg">
<rect width="98" height="91" rx="10" fill="#FFCC29"/>
<path d="M49.989 24.7033H48.011V31.2967H49.989V24.7033Z" fill="#5389A9"/>
<path d="M49 29.978L71.088 59.978H75.044V56.022C75.044 41.6383 63.3836 29.978 49 29.978Z" fill="#66C6FE"/>
<path d="M49 29.978C34.6164 29.978 22.9561 41.6383 22.9561 56.022V59.978H71.0879V56.022C71.088 41.6383 61.1989 29.978 49 29.978Z" fill="#99D9FF"/>
<path d="M71.088 59.978L67.132 63.934H71.088C73.2729 63.934 75.044 62.1628 75.044 59.978H71.088Z" fill="#5CA8D3"/>
<path d="M71.088 59.978H22.9561C22.9561 62.163 24.7272 63.934 26.9121 63.934H67.1319C69.3168 63.934 71.088 62.163 71.088 59.978Z" fill="#66C6FE"/>
<path d="M78.0109 60.9671H19.9891C19.4427 60.9671 19 60.5243 19 59.978C19 59.4317 19.4427 58.989 19.9891 58.989H78.0109C78.5573 58.989 79 59.4317 79 59.978C79 60.5243 78.5573 60.9671 78.0109 60.9671Z" fill="#5CA8D3"/>
<path d="M37 41.1869C37.5463 41.1869 37.9891 40.7441 37.9891 40.1978C37.9891 39.6516 37.5463 39.2087 37 39.2087C36.4538 39.2087 36.011 39.6516 36.011 40.1978C36.011 40.7441 36.4538 41.1869 37 41.1869Z" fill="#66C6FE"/>
<path d="M33.044 45.1429C33.5902 45.1429 34.0331 44.7001 34.0331 44.1538C34.0331 43.6076 33.5902 43.1648 33.044 43.1648C32.4978 43.1648 32.0549 43.6076 32.0549 44.1538C32.0549 44.7001 32.4978 45.1429 33.044 45.1429Z" fill="#66C6FE"/>
<path d="M49 22.066L47.6813 24.044L49 26.022H52.956C52.956 23.8371 51.1849 22.066 49 22.066Z" fill="#5CA8D3"/>
<path d="M45.0439 26.022H49V22.066C46.815 22.066 45.0439 23.8371 45.0439 26.022Z" fill="#66C6FE"/>
</svg>
